<svg xmlns="http://www.w3.org/2000/svg" xmlns:xlink="http://www.w3.org/1999/xlink" width="500" zoomAndPan="magnify" viewBox="0 0 375 374.999991" height="500" preserveAspectRatio="xMidYMid meet" version="1.0"><defs><g/></defs><g fill="#000000" fill-opacity="1"><g transform="translate(8.781588, 149.067854)"><g><path d="M 25.640625 -27.1875 C 29.710938 -26.882812 33 -25.535156 35.5 -23.140625 C 38 -20.742188 39.25 -17.769531 39.25 -14.21875 C 39.25 -11.488281 38.578125 -9.015625 37.234375 -6.796875 C 35.890625 -4.578125 34.046875 -2.835938 31.703125 -1.578125 C 29.367188 -0.316406 26.757812 0.3125 23.875 0.3125 C 22.175781 0.3125 20.320312 0.234375 18.3125 0.078125 C 17.59375 0.0234375 16.742188 -0.0234375 15.765625 -0.078125 C 14.785156 -0.128906 13.703125 -0.15625 12.515625 -0.15625 L 7.265625 -0.078125 C 6.335938 -0.0234375 5.023438 0 3.328125 0 C 3.222656 0 3.171875 -0.148438 3.171875 -0.453125 C 3.171875 -0.765625 3.222656 -0.921875 3.328125 -0.921875 C 5.273438 -0.921875 6.710938 -1.0625 7.640625 -1.34375 C 8.566406 -1.632812 9.210938 -2.140625 9.578125 -2.859375 C 9.941406 -3.578125 10.125 -4.707031 10.125 -6.25 L 10.125 -42.03125 C 10.125 -43.570312 9.953125 -44.703125 9.609375 -45.421875 C 9.273438 -46.140625 8.644531 -46.640625 7.71875 -46.921875 C 6.789062 -47.210938 5.375 -47.359375 3.46875 -47.359375 C 3.320312 -47.359375 3.25 -47.507812 3.25 -47.8125 C 3.25 -48.125 3.320312 -48.28125 3.46875 -48.28125 L 7.265625 -48.203125 C 9.421875 -48.097656 11.171875 -48.046875 12.515625 -48.046875 C 13.441406 -48.046875 14.300781 -48.070312 15.09375 -48.125 C 15.894531 -48.175781 16.582031 -48.226562 17.15625 -48.28125 C 18.75 -48.4375 20.238281 -48.515625 21.625 -48.515625 C 25.957031 -48.515625 29.203125 -47.570312 31.359375 -45.6875 C 33.523438 -43.8125 34.609375 -41.351562 34.609375 -38.3125 C 34.609375 -35.84375 33.804688 -33.640625 32.203125 -31.703125 C 30.609375 -29.773438 28.421875 -28.269531 25.640625 -27.1875 Z M 19.9375 -47.359375 C 18.59375 -47.359375 17.597656 -47.253906 16.953125 -47.046875 C 16.304688 -46.835938 15.828125 -46.347656 15.515625 -45.578125 C 15.210938 -44.804688 15.0625 -43.570312 15.0625 -41.875 L 15.0625 -27.1875 L 18.546875 -27.109375 C 22.296875 -27.109375 25.070312 -28.070312 26.875 -30 C 28.6875 -31.9375 29.59375 -34.503906 29.59375 -37.703125 C 29.59375 -40.585938 28.804688 -42.914062 27.234375 -44.6875 C 25.660156 -46.46875 23.226562 -47.359375 19.9375 -47.359375 Z M 22.71875 -1.078125 C 26.46875 -1.078125 29.253906 -2.039062 31.078125 -3.96875 C 32.910156 -5.90625 33.828125 -8.675781 33.828125 -12.28125 C 33.828125 -16.195312 32.679688 -19.363281 30.390625 -21.78125 C 28.097656 -24.207031 24.945312 -25.445312 20.9375 -25.5 C 19.289062 -25.539062 17.332031 -25.488281 15.0625 -25.34375 L 15.0625 -6.25 C 15.0625 -4.914062 15.253906 -3.882812 15.640625 -3.15625 C 16.023438 -2.4375 16.769531 -1.910156 17.875 -1.578125 C 18.988281 -1.242188 20.601562 -1.078125 22.71875 -1.078125 Z M 22.71875 -1.078125 "/></g></g></g><g fill="#000000" fill-opacity="1"><g transform="translate(63.933674, 149.067854)"><g><path d="M 36.6875 -11.515625 C 36.6875 -11.617188 36.789062 -11.671875 37 -11.671875 C 37.15625 -11.671875 37.296875 -11.644531 37.421875 -11.59375 C 37.554688 -11.539062 37.625 -11.460938 37.625 -11.359375 C 37.15625 -8.109375 36.921875 -4.707031 36.921875 -1.15625 C 36.921875 -0.75 36.832031 -0.453125 36.65625 -0.265625 C 36.476562 -0.0859375 36.15625 0 35.6875 0 L 3.328125 0 C 3.222656 0 3.171875 -0.148438 3.171875 -0.453125 C 3.171875 -0.765625 3.222656 -0.921875 3.328125 -0.921875 C 5.273438 -0.921875 6.703125 -1.050781 7.609375 -1.3125 C 8.515625 -1.570312 9.132812 -2.070312 9.46875 -2.8125 C 9.800781 -3.5625 9.96875 -4.707031 9.96875 -6.25 L 9.96875 -42.03125 C 9.96875 -43.570312 9.800781 -44.703125 9.46875 -45.421875 C 9.132812 -46.140625 8.515625 -46.640625 7.609375 -46.921875 C 6.703125 -47.210938 5.273438 -47.359375 3.328125 -47.359375 C 3.222656 -47.359375 3.171875 -47.507812 3.171875 -47.8125 C 3.171875 -48.125 3.222656 -48.28125 3.328125 -48.28125 L 34.375 -48.28125 C 34.84375 -48.28125 35.078125 -48.050781 35.078125 -47.59375 L 35.21875 -38.078125 C 35.21875 -37.929688 35.085938 -37.84375 34.828125 -37.8125 C 34.578125 -37.789062 34.425781 -37.851562 34.375 -38 C 34.21875 -40.726562 33.390625 -42.851562 31.890625 -44.375 C 30.398438 -45.894531 28.421875 -46.65625 25.953125 -46.65625 L 21.25 -46.65625 C 19.445312 -46.65625 18.117188 -46.515625 17.265625 -46.234375 C 16.410156 -45.953125 15.816406 -45.460938 15.484375 -44.765625 C 15.148438 -44.066406 14.984375 -43.023438 14.984375 -41.640625 L 14.984375 -25.953125 L 24.40625 -25.953125 C 26.882812 -25.953125 28.648438 -26.363281 29.703125 -27.1875 C 30.753906 -28.007812 31.28125 -29.398438 31.28125 -31.359375 C 31.28125 -31.460938 31.4375 -31.515625 31.75 -31.515625 C 32.0625 -31.515625 32.21875 -31.460938 32.21875 -31.359375 L 32.140625 -25.109375 C 32.140625 -23.609375 32.164062 -22.472656 32.21875 -21.703125 L 32.296875 -18 C 32.296875 -17.894531 32.140625 -17.84375 31.828125 -17.84375 C 31.515625 -17.84375 31.359375 -17.894531 31.359375 -18 C 31.359375 -20.257812 30.804688 -21.878906 29.703125 -22.859375 C 28.597656 -23.835938 26.753906 -24.328125 24.171875 -24.328125 L 14.984375 -24.328125 L 14.984375 -6.5625 C 14.984375 -5.125 15.132812 -4.066406 15.4375 -3.390625 C 15.75 -2.722656 16.316406 -2.257812 17.140625 -2 C 17.972656 -1.75 19.265625 -1.625 21.015625 -1.625 L 27.1875 -1.625 C 29.664062 -1.625 31.726562 -2.5 33.375 -4.25 C 35.019531 -6 36.125 -8.421875 36.6875 -11.515625 Z M 36.6875 -11.515625 "/></g></g></g><g fill="#000000" fill-opacity="1"><g transform="translate(117.463695, 149.067854)"><g><path d="M 47.4375 -48.28125 C 47.539062 -48.28125 47.59375 -48.125 47.59375 -47.8125 C 47.59375 -47.507812 47.539062 -47.359375 47.4375 -47.359375 C 45.582031 -47.359375 43.703125 -46.675781 41.796875 -45.3125 C 39.890625 -43.945312 38.1875 -42.078125 36.6875 -39.703125 L 26.34375 -23.796875 L 26.34375 -6.25 C 26.34375 -4.65625 26.492188 -3.5 26.796875 -2.78125 C 27.109375 -2.0625 27.710938 -1.570312 28.609375 -1.3125 C 29.515625 -1.050781 30.945312 -0.921875 32.90625 -0.921875 C 33.0625 -0.921875 33.140625 -0.765625 33.140625 -0.453125 C 33.140625 -0.148438 33.0625 0 32.90625 0 C 31.3125 0 30.078125 -0.0234375 29.203125 -0.078125 L 23.796875 -0.15625 L 18.46875 -0.078125 C 17.539062 -0.0234375 16.273438 0 14.671875 0 C 14.523438 0 14.453125 -0.148438 14.453125 -0.453125 C 14.453125 -0.765625 14.523438 -0.921875 14.671875 -0.921875 C 16.628906 -0.921875 18.054688 -1.050781 18.953125 -1.3125 C 19.859375 -1.570312 20.476562 -2.070312 20.8125 -2.8125 C 21.15625 -3.5625 21.328125 -4.707031 21.328125 -6.25 L 21.328125 -22.5625 L 8.5 -41.328125 C 7.050781 -43.597656 5.679688 -45.171875 4.390625 -46.046875 C 3.109375 -46.921875 1.617188 -47.359375 -0.078125 -47.359375 C -0.234375 -47.359375 -0.3125 -47.507812 -0.3125 -47.8125 C -0.3125 -48.125 -0.234375 -48.28125 -0.078125 -48.28125 C 0.535156 -48.28125 1.460938 -48.226562 2.703125 -48.125 L 5.40625 -48.046875 C 7.15625 -48.046875 9.367188 -48.097656 12.046875 -48.203125 L 16.21875 -48.28125 C 16.320312 -48.28125 16.375 -48.125 16.375 -47.8125 C 16.375 -47.507812 16.320312 -47.359375 16.21875 -47.359375 C 13.539062 -47.359375 12.203125 -46.816406 12.203125 -45.734375 C 12.203125 -45.160156 12.460938 -44.515625 12.984375 -43.796875 L 25.421875 -25.5625 L 34.84375 -40.015625 C 35.976562 -41.816406 36.546875 -43.335938 36.546875 -44.578125 C 36.546875 -46.429688 35.15625 -47.359375 32.375 -47.359375 C 32.269531 -47.359375 32.21875 -47.507812 32.21875 -47.8125 C 32.21875 -48.125 32.269531 -48.28125 32.375 -48.28125 L 36 -48.203125 C 37.957031 -48.097656 39.757812 -48.046875 41.40625 -48.046875 C 42.28125 -48.046875 43.335938 -48.097656 44.578125 -48.203125 Z M 47.4375 -48.28125 "/></g></g></g><g fill="#000000" fill-opacity="1"><g transform="translate(176.555065, 149.067854)"><g><path d="M 28.28125 0.921875 C 23.488281 0.921875 19.222656 -0.195312 15.484375 -2.4375 C 11.753906 -4.675781 8.867188 -7.710938 6.828125 -11.546875 C 4.796875 -15.378906 3.78125 -19.566406 3.78125 -24.109375 C 3.78125 -29.410156 5.117188 -33.953125 7.796875 -37.734375 C 10.472656 -41.523438 13.910156 -44.367188 18.109375 -46.265625 C 22.304688 -48.171875 26.597656 -49.125 30.984375 -49.125 C 35.867188 -49.125 40.164062 -47.976562 43.875 -45.6875 C 47.582031 -43.394531 50.425781 -40.367188 52.40625 -36.609375 C 54.394531 -32.859375 55.390625 -28.867188 55.390625 -24.640625 C 55.390625 -19.953125 54.148438 -15.648438 51.671875 -11.734375 C 49.203125 -7.828125 45.894531 -4.738281 41.75 -2.46875 C 37.601562 -0.207031 33.113281 0.921875 28.28125 0.921875 Z M 30.984375 -0.6875 C 34.484375 -0.6875 37.632812 -1.535156 40.4375 -3.234375 C 43.25 -4.941406 45.460938 -7.441406 47.078125 -10.734375 C 48.703125 -14.035156 49.515625 -17.953125 49.515625 -22.484375 C 49.515625 -27.316406 48.613281 -31.613281 46.8125 -35.375 C 45.007812 -39.132812 42.472656 -42.070312 39.203125 -44.1875 C 35.929688 -46.300781 32.109375 -47.359375 27.734375 -47.359375 C 22.066406 -47.359375 17.632812 -45.53125 14.4375 -41.875 C 11.25 -38.21875 9.65625 -33.195312 9.65625 -26.8125 C 9.65625 -21.96875 10.554688 -17.550781 12.359375 -13.5625 C 14.160156 -9.570312 16.679688 -6.425781 19.921875 -4.125 C 23.171875 -1.832031 26.859375 -0.6875 30.984375 -0.6875 Z M 30.984375 -0.6875 "/></g></g></g><g fill="#000000" fill-opacity="1"><g transform="translate(247.773254, 149.067854)"><g><path d="M 54.390625 -48.28125 C 54.535156 -48.28125 54.609375 -48.125 54.609375 -47.8125 C 54.609375 -47.507812 54.535156 -47.359375 54.390625 -47.359375 C 52.222656 -47.359375 50.648438 -46.765625 49.671875 -45.578125 C 48.691406 -44.390625 48.203125 -42.457031 48.203125 -39.78125 L 48.203125 0.921875 C 48.203125 1.023438 48.070312 1.101562 47.8125 1.15625 C 47.5625 1.207031 47.382812 1.179688 47.28125 1.078125 L 11.734375 -41.953125 L 11.046875 -42.71875 L 11.046875 -8.421875 C 11.046875 -5.742188 11.519531 -3.820312 12.46875 -2.65625 C 13.425781 -1.5 14.960938 -0.921875 17.078125 -0.921875 C 17.222656 -0.921875 17.296875 -0.765625 17.296875 -0.453125 C 17.296875 -0.148438 17.222656 0 17.078125 0 C 15.785156 0 14.804688 -0.0234375 14.140625 -0.078125 L 10.28125 -0.15625 L 6.328125 -0.078125 C 5.609375 -0.0234375 4.554688 0 3.171875 0 C 3.066406 0 3.015625 -0.148438 3.015625 -0.453125 C 3.015625 -0.765625 3.066406 -0.921875 3.171875 -0.921875 C 5.378906 -0.921875 6.945312 -1.5 7.875 -2.65625 C 8.800781 -3.820312 9.265625 -5.742188 9.265625 -8.421875 L 9.265625 -44.578125 C 7.253906 -46.429688 5.222656 -47.359375 3.171875 -47.359375 C 3.015625 -47.359375 2.9375 -47.507812 2.9375 -47.8125 C 2.9375 -48.125 3.015625 -48.28125 3.171875 -48.28125 L 6.03125 -48.203125 C 6.644531 -48.148438 7.492188 -48.125 8.578125 -48.125 C 9.710938 -48.125 10.640625 -48.148438 11.359375 -48.203125 C 12.078125 -48.253906 12.644531 -48.28125 13.0625 -48.28125 C 13.46875 -48.28125 13.757812 -48.1875 13.9375 -48 C 14.125 -47.820312 14.421875 -47.425781 14.828125 -46.8125 C 15.453125 -45.882812 16.070312 -45.035156 16.6875 -44.265625 L 46.421875 -7.71875 L 46.421875 -39.78125 C 46.421875 -42.457031 45.96875 -44.390625 45.0625 -45.578125 C 44.164062 -46.765625 42.664062 -47.359375 40.5625 -47.359375 C 40.457031 -47.359375 40.40625 -47.507812 40.40625 -47.8125 C 40.40625 -48.125 40.457031 -48.28125 40.5625 -48.28125 L 43.5625 -48.203125 C 45.113281 -48.097656 46.378906 -48.046875 47.359375 -48.046875 C 48.285156 -48.046875 49.570312 -48.097656 51.21875 -48.203125 Z M 54.390625 -48.28125 "/></g></g></g><g fill="#000000" fill-opacity="1"><g transform="translate(315.97906, 149.067854)"><g><path d="M 23.40625 0.3125 C 21.914062 0.3125 20.191406 0.234375 18.234375 0.078125 C 17.515625 0.0234375 16.597656 -0.0234375 15.484375 -0.078125 C 14.378906 -0.128906 13.15625 -0.15625 11.8125 -0.15625 L 6.5625 -0.078125 C 5.632812 -0.0234375 4.347656 0 2.703125 0 C 2.597656 0 2.546875 -0.148438 2.546875 -0.453125 C 2.546875 -0.765625 2.597656 -0.921875 2.703125 -0.921875 C 4.660156 -0.921875 6.085938 -1.050781 6.984375 -1.3125 C 7.890625 -1.570312 8.507812 -2.070312 8.84375 -2.8125 C 9.175781 -3.5625 9.34375 -4.707031 9.34375 -6.25 L 9.34375 -42.03125 C 9.34375 -43.570312 9.1875 -44.703125 8.875 -45.421875 C 8.570312 -46.140625 7.96875 -46.640625 7.0625 -46.921875 C 6.164062 -47.210938 4.738281 -47.359375 2.78125 -47.359375 C 2.675781 -47.359375 2.625 -47.507812 2.625 -47.8125 C 2.625 -48.125 2.675781 -48.28125 2.78125 -48.28125 L 6.640625 -48.203125 C 8.804688 -48.097656 10.53125 -48.046875 11.8125 -48.046875 C 13.769531 -48.046875 15.703125 -48.125 17.609375 -48.28125 C 19.878906 -48.382812 21.453125 -48.4375 22.328125 -48.4375 C 27.679688 -48.4375 32.414062 -47.40625 36.53125 -45.34375 C 40.65625 -43.28125 43.863281 -40.472656 46.15625 -36.921875 C 48.445312 -33.367188 49.59375 -29.378906 49.59375 -24.953125 C 49.59375 -19.953125 48.421875 -15.535156 46.078125 -11.703125 C 43.734375 -7.867188 40.550781 -4.90625 36.53125 -2.8125 C 32.519531 -0.726562 28.144531 0.3125 23.40625 0.3125 Z M 22.640625 -0.84375 C 26.753906 -0.84375 30.40625 -1.707031 33.59375 -3.4375 C 36.789062 -5.164062 39.273438 -7.710938 41.046875 -11.078125 C 42.828125 -14.453125 43.71875 -18.507812 43.71875 -23.25 C 43.71875 -27.726562 42.867188 -31.796875 41.171875 -35.453125 C 39.472656 -39.109375 37.050781 -41.992188 33.90625 -44.109375 C 30.769531 -46.222656 27.140625 -47.28125 23.015625 -47.28125 C 20.804688 -47.28125 19.09375 -47.148438 17.875 -46.890625 C 16.664062 -46.628906 15.78125 -46.113281 15.21875 -45.34375 C 14.65625 -44.570312 14.375 -43.414062 14.375 -41.875 L 14.375 -7.109375 C 14.375 -5.566406 14.59375 -4.351562 15.03125 -3.46875 C 15.46875 -2.59375 16.289062 -1.9375 17.5 -1.5 C 18.707031 -1.0625 20.421875 -0.84375 22.640625 -0.84375 Z M 22.640625 -0.84375 "/></g></g></g><g fill="#000000" fill-opacity="1"><g transform="translate(8.781588, 204.334499)"><g><path d="M 37.828125 -11.859375 C 37.828125 -11.960938 37.929688 -12.015625 38.140625 -12.015625 C 38.296875 -12.015625 38.441406 -11.988281 38.578125 -11.9375 C 38.710938 -11.882812 38.78125 -11.804688 38.78125 -11.703125 C 38.300781 -8.359375 38.0625 -4.851562 38.0625 -1.1875 C 38.0625 -0.769531 37.96875 -0.46875 37.78125 -0.28125 C 37.59375 -0.09375 37.257812 0 36.78125 0 L 3.421875 0 C 3.316406 0 3.265625 -0.15625 3.265625 -0.46875 C 3.265625 -0.789062 3.316406 -0.953125 3.421875 -0.953125 C 5.441406 -0.953125 6.914062 -1.082031 7.84375 -1.34375 C 8.769531 -1.613281 9.40625 -2.132812 9.75 -2.90625 C 10.09375 -3.675781 10.265625 -4.859375 10.265625 -6.453125 L 10.265625 -43.3125 C 10.265625 -44.90625 10.09375 -46.070312 9.75 -46.8125 C 9.40625 -47.5625 8.769531 -48.082031 7.84375 -48.375 C 6.914062 -48.664062 5.441406 -48.8125 3.421875 -48.8125 C 3.316406 -48.8125 3.265625 -48.96875 3.265625 -49.28125 C 3.265625 -49.601562 3.316406 -49.765625 3.421875 -49.765625 L 35.4375 -49.765625 C 35.914062 -49.765625 36.15625 -49.523438 36.15625 -49.046875 L 36.3125 -39.25 C 36.3125 -39.09375 36.175781 -39 35.90625 -38.96875 C 35.644531 -38.945312 35.488281 -39.015625 35.4375 -39.171875 C 35.269531 -41.984375 34.414062 -44.171875 32.875 -45.734375 C 31.34375 -47.304688 29.300781 -48.09375 26.75 -48.09375 L 21.890625 -48.09375 C 20.035156 -48.09375 18.671875 -47.945312 17.796875 -47.65625 C 16.921875 -47.363281 16.3125 -46.859375 15.96875 -46.140625 C 15.625 -45.421875 15.453125 -44.347656 15.453125 -42.921875 L 15.453125 -26.75 L 25.15625 -26.75 C 27.707031 -26.75 29.523438 -27.171875 30.609375 -28.015625 C 31.703125 -28.867188 32.25 -30.304688 32.25 -32.328125 C 32.25 -32.429688 32.40625 -32.484375 32.71875 -32.484375 C 33.039062 -32.484375 33.203125 -32.429688 33.203125 -32.328125 L 33.125 -25.875 C 33.125 -24.332031 33.148438 -23.164062 33.203125 -22.375 L 33.28125 -18.546875 C 33.28125 -18.441406 33.117188 -18.390625 32.796875 -18.390625 C 32.484375 -18.390625 32.328125 -18.441406 32.328125 -18.546875 C 32.328125 -20.890625 31.753906 -22.5625 30.609375 -23.5625 C 29.472656 -24.570312 27.578125 -25.078125 24.921875 -25.078125 L 15.453125 -25.078125 L 15.453125 -6.765625 C 15.453125 -5.273438 15.609375 -4.1875 15.921875 -3.5 C 16.242188 -2.8125 16.828125 -2.332031 17.671875 -2.0625 C 18.523438 -1.800781 19.851562 -1.671875 21.65625 -1.671875 L 28.03125 -1.671875 C 30.570312 -1.671875 32.691406 -2.570312 34.390625 -4.375 C 36.097656 -6.1875 37.242188 -8.679688 37.828125 -11.859375 Z M 37.828125 -11.859375 "/></g></g></g><g fill="#000000" fill-opacity="1"><g transform="translate(66.023507, 204.334499)"><g><path d="M 53.265625 -49.765625 C 53.429688 -49.765625 53.515625 -49.601562 53.515625 -49.28125 C 53.515625 -48.96875 53.429688 -48.8125 53.265625 -48.8125 C 51.460938 -48.8125 49.894531 -48.332031 48.5625 -47.375 C 47.238281 -46.414062 46.128906 -44.796875 45.234375 -42.515625 L 28.265625 -0.078125 C 28.210938 0.128906 27.921875 0.234375 27.390625 0.234375 C 26.960938 0.234375 26.671875 0.128906 26.515625 -0.078125 L 6.6875 -43.15625 C 5.78125 -45.226562 4.820312 -46.6875 3.8125 -47.53125 C 2.8125 -48.382812 1.515625 -48.8125 -0.078125 -48.8125 C -0.234375 -48.8125 -0.3125 -48.96875 -0.3125 -49.28125 C -0.3125 -49.601562 -0.234375 -49.765625 -0.078125 -49.765625 L 2.953125 -49.6875 C 4.429688 -49.582031 5.625 -49.53125 6.53125 -49.53125 C 8.65625 -49.53125 10.9375 -49.582031 13.375 -49.6875 L 16.640625 -49.765625 C 16.796875 -49.765625 16.875 -49.601562 16.875 -49.28125 C 16.875 -48.96875 16.796875 -48.8125 16.640625 -48.8125 C 14.992188 -48.8125 13.757812 -48.597656 12.9375 -48.171875 C 12.113281 -47.742188 11.703125 -47.023438 11.703125 -46.015625 C 11.703125 -45.378906 11.941406 -44.53125 12.421875 -43.46875 L 29.0625 -7 L 43.390625 -42.921875 C 43.816406 -44.035156 44.03125 -44.910156 44.03125 -45.546875 C 44.03125 -46.660156 43.523438 -47.484375 42.515625 -48.015625 C 41.503906 -48.546875 39.941406 -48.8125 37.828125 -48.8125 C 37.660156 -48.8125 37.578125 -48.96875 37.578125 -49.28125 C 37.578125 -49.601562 37.660156 -49.765625 37.828125 -49.765625 L 41.25 -49.6875 C 43.050781 -49.582031 44.695312 -49.53125 46.1875 -49.53125 C 47.300781 -49.53125 48.546875 -49.582031 49.921875 -49.6875 Z M 53.265625 -49.765625 "/></g></g></g><g fill="#000000" fill-opacity="1"><g transform="translate(133.535249, 204.334499)"><g><path d="M 37.828125 -11.859375 C 37.828125 -11.960938 37.929688 -12.015625 38.140625 -12.015625 C 38.296875 -12.015625 38.441406 -11.988281 38.578125 -11.9375 C 38.710938 -11.882812 38.78125 -11.804688 38.78125 -11.703125 C 38.300781 -8.359375 38.0625 -4.851562 38.0625 -1.1875 C 38.0625 -0.769531 37.96875 -0.46875 37.78125 -0.28125 C 37.59375 -0.09375 37.257812 0 36.78125 0 L 3.421875 0 C 3.316406 0 3.265625 -0.15625 3.265625 -0.46875 C 3.265625 -0.789062 3.316406 -0.953125 3.421875 -0.953125 C 5.441406 -0.953125 6.914062 -1.082031 7.84375 -1.34375 C 8.769531 -1.613281 9.40625 -2.132812 9.75 -2.90625 C 10.09375 -3.675781 10.265625 -4.859375 10.265625 -6.453125 L 10.265625 -43.3125 C 10.265625 -44.90625 10.09375 -46.070312 9.75 -46.8125 C 9.40625 -47.5625 8.769531 -48.082031 7.84375 -48.375 C 6.914062 -48.664062 5.441406 -48.8125 3.421875 -48.8125 C 3.316406 -48.8125 3.265625 -48.96875 3.265625 -49.28125 C 3.265625 -49.601562 3.316406 -49.765625 3.421875 -49.765625 L 35.4375 -49.765625 C 35.914062 -49.765625 36.15625 -49.523438 36.15625 -49.046875 L 36.3125 -39.25 C 36.3125 -39.09375 36.175781 -39 35.90625 -38.96875 C 35.644531 -38.945312 35.488281 -39.015625 35.4375 -39.171875 C 35.269531 -41.984375 34.414062 -44.171875 32.875 -45.734375 C 31.34375 -47.304688 29.300781 -48.09375 26.75 -48.09375 L 21.890625 -48.09375 C 20.035156 -48.09375 18.671875 -47.945312 17.796875 -47.65625 C 16.921875 -47.363281 16.3125 -46.859375 15.96875 -46.140625 C 15.625 -45.421875 15.453125 -44.347656 15.453125 -42.921875 L 15.453125 -26.75 L 25.15625 -26.75 C 27.707031 -26.75 29.523438 -27.171875 30.609375 -28.015625 C 31.703125 -28.867188 32.25 -30.304688 32.25 -32.328125 C 32.25 -32.429688 32.40625 -32.484375 32.71875 -32.484375 C 33.039062 -32.484375 33.203125 -32.429688 33.203125 -32.328125 L 33.125 -25.875 C 33.125 -24.332031 33.148438 -23.164062 33.203125 -22.375 L 33.28125 -18.546875 C 33.28125 -18.441406 33.117188 -18.390625 32.796875 -18.390625 C 32.484375 -18.390625 32.328125 -18.441406 32.328125 -18.546875 C 32.328125 -20.890625 31.753906 -22.5625 30.609375 -23.5625 C 29.472656 -24.570312 27.578125 -25.078125 24.921875 -25.078125 L 15.453125 -25.078125 L 15.453125 -6.765625 C 15.453125 -5.273438 15.609375 -4.1875 15.921875 -3.5 C 16.242188 -2.8125 16.828125 -2.332031 17.671875 -2.0625 C 18.523438 -1.800781 19.851562 -1.671875 21.65625 -1.671875 L 28.03125 -1.671875 C 30.570312 -1.671875 32.691406 -2.570312 34.390625 -4.375 C 36.097656 -6.1875 37.242188 -8.679688 37.828125 -11.859375 Z M 37.828125 -11.859375 "/></g></g></g><g fill="#000000" fill-opacity="1"><g transform="translate(190.777159, 204.334499)"><g><path d="M 56.0625 -49.765625 C 56.21875 -49.765625 56.296875 -49.601562 56.296875 -49.28125 C 56.296875 -48.96875 56.21875 -48.8125 56.0625 -48.8125 C 53.832031 -48.8125 52.210938 -48.195312 51.203125 -46.96875 C 50.191406 -45.75 49.6875 -43.757812 49.6875 -41 L 49.6875 0.953125 C 49.6875 1.054688 49.550781 1.132812 49.28125 1.1875 C 49.019531 1.25 48.835938 1.222656 48.734375 1.109375 L 12.109375 -43.234375 L 11.390625 -44.03125 L 11.390625 -8.671875 C 11.390625 -5.910156 11.878906 -3.929688 12.859375 -2.734375 C 13.835938 -1.546875 15.414062 -0.953125 17.59375 -0.953125 C 17.757812 -0.953125 17.84375 -0.789062 17.84375 -0.46875 C 17.84375 -0.15625 17.757812 0 17.59375 0 C 16.269531 0 15.265625 -0.0234375 14.578125 -0.078125 L 10.59375 -0.15625 L 6.53125 -0.078125 C 5.789062 -0.0234375 4.703125 0 3.265625 0 C 3.160156 0 3.109375 -0.15625 3.109375 -0.46875 C 3.109375 -0.789062 3.160156 -0.953125 3.265625 -0.953125 C 5.546875 -0.953125 7.164062 -1.546875 8.125 -2.734375 C 9.082031 -3.929688 9.5625 -5.910156 9.5625 -8.671875 L 9.5625 -45.9375 C 7.488281 -47.851562 5.390625 -48.8125 3.265625 -48.8125 C 3.109375 -48.8125 3.03125 -48.96875 3.03125 -49.28125 C 3.03125 -49.601562 3.109375 -49.765625 3.265625 -49.765625 L 6.203125 -49.6875 C 6.847656 -49.632812 7.726562 -49.609375 8.84375 -49.609375 C 10.007812 -49.609375 10.960938 -49.632812 11.703125 -49.6875 C 12.441406 -49.738281 13.023438 -49.765625 13.453125 -49.765625 C 13.878906 -49.765625 14.1875 -49.671875 14.375 -49.484375 C 14.5625 -49.296875 14.863281 -48.882812 15.28125 -48.25 C 15.925781 -47.289062 16.566406 -46.414062 17.203125 -45.625 L 47.859375 -7.96875 L 47.859375 -41 C 47.859375 -43.757812 47.390625 -45.75 46.453125 -46.96875 C 45.523438 -48.195312 43.972656 -48.8125 41.796875 -48.8125 C 41.691406 -48.8125 41.640625 -48.96875 41.640625 -49.28125 C 41.640625 -49.601562 41.691406 -49.765625 41.796875 -49.765625 L 44.90625 -49.6875 C 46.5 -49.582031 47.800781 -49.53125 48.8125 -49.53125 C 49.769531 -49.53125 51.097656 -49.582031 52.796875 -49.6875 Z M 56.0625 -49.765625 "/></g></g></g><g fill="#000000" fill-opacity="1"><g transform="translate(263.145181, 204.334499)"><g><path d="M 15.046875 -48.328125 C 11.703125 -48.328125 9.191406 -47.476562 7.515625 -45.78125 C 5.847656 -44.082031 4.644531 -41.191406 3.90625 -37.109375 C 3.90625 -37.003906 3.757812 -36.953125 3.46875 -36.953125 C 3.175781 -36.953125 3.03125 -37.003906 3.03125 -37.109375 C 3.238281 -39.015625 3.472656 -41.503906 3.734375 -44.578125 C 4.003906 -47.660156 4.140625 -49.972656 4.140625 -51.515625 C 4.140625 -51.785156 4.285156 -51.921875 4.578125 -51.921875 C 4.867188 -51.921875 5.015625 -51.785156 5.015625 -51.515625 C 5.015625 -50.347656 6.445312 -49.765625 9.3125 -49.765625 C 13.820312 -49.609375 19.160156 -49.53125 25.328125 -49.53125 C 28.453125 -49.53125 31.769531 -49.582031 35.28125 -49.6875 L 40.6875 -49.765625 C 42.601562 -49.765625 44.023438 -49.894531 44.953125 -50.15625 C 45.878906 -50.425781 46.472656 -50.957031 46.734375 -51.75 C 46.785156 -51.96875 46.941406 -52.078125 47.203125 -52.078125 C 47.472656 -52.078125 47.609375 -51.96875 47.609375 -51.75 C 47.453125 -50.21875 47.296875 -47.882812 47.140625 -44.75 C 46.984375 -41.613281 46.90625 -39.066406 46.90625 -37.109375 C 46.90625 -37.003906 46.742188 -36.953125 46.421875 -36.953125 C 46.097656 -36.953125 45.9375 -37.003906 45.9375 -37.109375 C 45.78125 -41.242188 44.929688 -44.144531 43.390625 -45.8125 C 41.859375 -47.488281 39.3125 -48.328125 35.75 -48.328125 C 33.363281 -48.328125 31.664062 -48.21875 30.65625 -48 C 29.644531 -47.789062 28.953125 -47.34375 28.578125 -46.65625 C 28.210938 -45.96875 28.03125 -44.800781 28.03125 -43.15625 L 28.03125 -6.453125 C 28.03125 -4.804688 28.210938 -3.609375 28.578125 -2.859375 C 28.953125 -2.117188 29.671875 -1.613281 30.734375 -1.34375 C 31.796875 -1.082031 33.46875 -0.953125 35.75 -0.953125 C 35.90625 -0.953125 35.984375 -0.789062 35.984375 -0.46875 C 35.984375 -0.15625 35.90625 0 35.75 0 C 34 0 32.59375 -0.0234375 31.53125 -0.078125 L 25.328125 -0.15625 L 19.34375 -0.078125 C 18.28125 -0.0234375 16.820312 0 14.96875 0 C 14.863281 0 14.8125 -0.15625 14.8125 -0.46875 C 14.8125 -0.789062 14.863281 -0.953125 14.96875 -0.953125 C 17.25 -0.953125 18.921875 -1.082031 19.984375 -1.34375 C 21.046875 -1.613281 21.773438 -2.132812 22.171875 -2.90625 C 22.566406 -3.675781 22.765625 -4.859375 22.765625 -6.453125 L 22.765625 -43.3125 C 22.765625 -44.957031 22.578125 -46.113281 22.203125 -46.78125 C 21.835938 -47.445312 21.148438 -47.867188 20.140625 -48.046875 C 19.128906 -48.234375 17.429688 -48.328125 15.046875 -48.328125 Z M 15.046875 -48.328125 "/></g></g></g><g fill="#000000" fill-opacity="1"><g transform="translate(328.109369, 204.334499)"><g><path d="M 11.546875 -40.453125 C 11.546875 -38.378906 12.050781 -36.570312 13.0625 -35.03125 C 14.070312 -33.488281 15.289062 -32.203125 16.71875 -31.171875 C 18.15625 -30.140625 20.171875 -28.828125 22.765625 -27.234375 C 25.523438 -25.585938 27.675781 -24.207031 29.21875 -23.09375 C 30.757812 -21.976562 32.070312 -20.554688 33.15625 -18.828125 C 34.25 -17.109375 34.796875 -15.050781 34.796875 -12.65625 C 34.796875 -10.113281 34.15625 -7.804688 32.875 -5.734375 C 31.601562 -3.660156 29.734375 -2.023438 27.265625 -0.828125 C 24.796875 0.359375 21.835938 0.953125 18.390625 0.953125 C 14.304688 0.953125 10.566406 0.0234375 7.171875 -1.828125 C 6.898438 -1.984375 6.722656 -2.164062 6.640625 -2.375 C 6.566406 -2.59375 6.503906 -2.914062 6.453125 -3.34375 L 5.421875 -14.171875 C 5.359375 -14.378906 5.472656 -14.507812 5.765625 -14.5625 C 6.054688 -14.625 6.234375 -14.546875 6.296875 -14.328125 C 7.140625 -10.503906 8.710938 -7.210938 11.015625 -4.453125 C 13.328125 -1.691406 16.394531 -0.3125 20.21875 -0.3125 C 22.875 -0.3125 25.117188 -1.039062 26.953125 -2.5 C 28.785156 -3.96875 29.703125 -6.289062 29.703125 -9.46875 C 29.703125 -11.863281 29.171875 -13.9375 28.109375 -15.6875 C 27.046875 -17.4375 25.753906 -18.878906 24.234375 -20.015625 C 22.722656 -21.160156 20.671875 -22.503906 18.078125 -24.046875 C 15.523438 -25.585938 13.519531 -26.914062 12.0625 -28.03125 C 10.601562 -29.144531 9.367188 -30.550781 8.359375 -32.25 C 7.347656 -33.945312 6.84375 -35.9375 6.84375 -38.21875 C 6.84375 -40.875 7.546875 -43.144531 8.953125 -45.03125 C 10.359375 -46.914062 12.191406 -48.320312 14.453125 -49.25 C 16.710938 -50.175781 19.113281 -50.640625 21.65625 -50.640625 C 24.789062 -50.640625 27.894531 -50.003906 30.96875 -48.734375 C 31.769531 -48.460938 32.171875 -48.007812 32.171875 -47.375 L 32.71875 -38.21875 C 32.71875 -38.007812 32.582031 -37.90625 32.3125 -37.90625 C 32.050781 -37.90625 31.894531 -38.007812 31.84375 -38.21875 C 31.425781 -40.976562 30.285156 -43.539062 28.421875 -45.90625 C 26.566406 -48.269531 23.890625 -49.453125 20.390625 -49.453125 C 17.410156 -49.453125 15.191406 -48.585938 13.734375 -46.859375 C 12.273438 -45.128906 11.546875 -42.992188 11.546875 -40.453125 Z M 11.546875 -40.453125 "/></g></g></g><g fill="#000000" fill-opacity="1"><g transform="translate(12.751895, 222.213959)"><g><path d="M 16.75 -11.203125 C 16.78125 -11.203125 16.796875 -11.164062 16.796875 -11.09375 C 16.796875 -11.019531 16.78125 -10.984375 16.75 -10.984375 C 16.34375 -10.984375 15.988281 -10.875 15.6875 -10.65625 C 15.394531 -10.445312 15.140625 -10.082031 14.921875 -9.5625 L 11.109375 -0.015625 C 11.097656 0.0234375 11.035156 0.046875 10.921875 0.046875 C 10.816406 0.046875 10.75 0.0234375 10.71875 -0.015625 L 8.390625 -5.109375 L 6.359375 -0.015625 C 6.347656 0.0234375 6.285156 0.046875 6.171875 0.046875 C 6.066406 0.046875 6 0.0234375 5.96875 -0.015625 L 1.5 -9.71875 C 1.289062 -10.195312 1.078125 -10.523438 0.859375 -10.703125 C 0.640625 -10.890625 0.347656 -10.984375 -0.015625 -10.984375 C -0.0546875 -10.984375 -0.078125 -11.019531 -0.078125 -11.09375 C -0.078125 -11.164062 -0.0546875 -11.203125 -0.015625 -11.203125 L 0.65625 -11.1875 C 1 -11.15625 1.269531 -11.140625 1.46875 -11.140625 C 1.894531 -11.140625 2.363281 -11.15625 2.875 -11.1875 L 3.609375 -11.203125 C 3.640625 -11.203125 3.65625 -11.164062 3.65625 -11.09375 C 3.65625 -11.019531 3.640625 -10.984375 3.609375 -10.984375 C 3.242188 -10.984375 2.972656 -10.941406 2.796875 -10.859375 C 2.628906 -10.773438 2.546875 -10.632812 2.546875 -10.4375 C 2.546875 -10.25 2.601562 -10.03125 2.71875 -9.78125 L 6.546875 -1.59375 L 8.15625 -5.609375 L 6.265625 -9.71875 C 6.054688 -10.175781 5.84375 -10.5 5.625 -10.6875 C 5.414062 -10.882812 5.132812 -10.984375 4.78125 -10.984375 C 4.75 -10.984375 4.734375 -11.019531 4.734375 -11.09375 C 4.734375 -11.164062 4.75 -11.203125 4.78125 -11.203125 L 5.453125 -11.1875 C 5.785156 -11.15625 6.046875 -11.140625 6.234375 -11.140625 C 6.566406 -11.140625 6.914062 -11.15625 7.28125 -11.1875 L 7.765625 -11.203125 C 7.796875 -11.203125 7.8125 -11.164062 7.8125 -11.09375 C 7.8125 -11.019531 7.796875 -10.984375 7.765625 -10.984375 C 7.546875 -10.984375 7.390625 -10.960938 7.296875 -10.921875 C 7.210938 -10.890625 7.171875 -10.820312 7.171875 -10.71875 C 7.171875 -10.5625 7.273438 -10.25 7.484375 -9.78125 L 8.796875 -6.984375 L 9.859375 -9.65625 C 9.984375 -10.019531 10.046875 -10.289062 10.046875 -10.46875 C 10.046875 -10.644531 9.988281 -10.773438 9.875 -10.859375 C 9.757812 -10.941406 9.566406 -10.984375 9.296875 -10.984375 C 9.265625 -10.984375 9.25 -11.019531 9.25 -11.09375 C 9.25 -11.164062 9.265625 -11.203125 9.296875 -11.203125 L 9.71875 -11.1875 C 9.957031 -11.15625 10.207031 -11.140625 10.46875 -11.140625 C 10.707031 -11.140625 10.984375 -11.15625 11.296875 -11.1875 L 12.03125 -11.203125 C 12.050781 -11.203125 12.0625 -11.164062 12.0625 -11.09375 C 12.0625 -11.019531 12.050781 -10.984375 12.03125 -10.984375 C 11.625 -10.984375 11.28125 -10.878906 11 -10.671875 C 10.71875 -10.460938 10.46875 -10.09375 10.25 -9.5625 L 9.03125 -6.5 L 11.3125 -1.59375 L 14.515625 -9.625 C 14.609375 -9.875 14.65625 -10.082031 14.65625 -10.25 C 14.65625 -10.5 14.546875 -10.679688 14.328125 -10.796875 C 14.117188 -10.921875 13.78125 -10.984375 13.3125 -10.984375 C 13.28125 -10.984375 13.265625 -11.019531 13.265625 -11.09375 C 13.265625 -11.164062 13.28125 -11.203125 13.3125 -11.203125 L 14.046875 -11.1875 C 14.453125 -11.15625 14.820312 -11.140625 15.15625 -11.140625 C 15.394531 -11.140625 15.671875 -11.15625 15.984375 -11.1875 Z M 16.75 -11.203125 "/></g></g></g><g fill="#000000" fill-opacity="1"><g transform="translate(32.594227, 222.213959)"><g><path d="M 8.515625 -2.671875 C 8.515625 -2.691406 8.535156 -2.703125 8.578125 -2.703125 C 8.617188 -2.703125 8.65625 -2.695312 8.6875 -2.6875 C 8.71875 -2.675781 8.734375 -2.660156 8.734375 -2.640625 C 8.617188 -1.878906 8.5625 -1.085938 8.5625 -0.265625 C 8.5625 -0.171875 8.539062 -0.101562 8.5 -0.0625 C 8.457031 -0.0195312 8.382812 0 8.28125 0 L 0.765625 0 C 0.742188 0 0.734375 -0.0351562 0.734375 -0.109375 C 0.734375 -0.179688 0.742188 -0.21875 0.765625 -0.21875 C 1.222656 -0.21875 1.554688 -0.242188 1.765625 -0.296875 C 1.972656 -0.359375 2.113281 -0.472656 2.1875 -0.640625 C 2.269531 -0.816406 2.3125 -1.085938 2.3125 -1.453125 L 2.3125 -9.75 C 2.3125 -10.101562 2.269531 -10.363281 2.1875 -10.53125 C 2.113281 -10.695312 1.972656 -10.8125 1.765625 -10.875 C 1.554688 -10.945312 1.222656 -10.984375 0.765625 -10.984375 C 0.742188 -10.984375 0.734375 -11.019531 0.734375 -11.09375 C 0.734375 -11.164062 0.742188 -11.203125 0.765625 -11.203125 L 7.96875 -11.203125 C 8.082031 -11.203125 8.140625 -11.148438 8.140625 -11.046875 L 8.171875 -8.828125 C 8.171875 -8.796875 8.140625 -8.773438 8.078125 -8.765625 C 8.023438 -8.765625 7.988281 -8.78125 7.96875 -8.8125 C 7.9375 -9.445312 7.742188 -9.941406 7.390625 -10.296875 C 7.046875 -10.648438 6.585938 -10.828125 6.015625 -10.828125 L 4.921875 -10.828125 C 4.503906 -10.828125 4.195312 -10.789062 4 -10.71875 C 3.800781 -10.65625 3.664062 -10.539062 3.59375 -10.375 C 3.519531 -10.21875 3.484375 -9.976562 3.484375 -9.65625 L 3.484375 -6.015625 L 5.65625 -6.015625 C 6.238281 -6.015625 6.648438 -6.109375 6.890625 -6.296875 C 7.140625 -6.492188 7.265625 -6.820312 7.265625 -7.28125 C 7.265625 -7.300781 7.296875 -7.3125 7.359375 -7.3125 C 7.429688 -7.3125 7.46875 -7.300781 7.46875 -7.28125 L 7.453125 -5.828125 C 7.453125 -5.484375 7.457031 -5.21875 7.46875 -5.03125 L 7.484375 -4.171875 C 7.484375 -4.148438 7.445312 -4.140625 7.375 -4.140625 C 7.3125 -4.140625 7.28125 -4.148438 7.28125 -4.171875 C 7.28125 -4.703125 7.148438 -5.078125 6.890625 -5.296875 C 6.628906 -5.523438 6.203125 -5.640625 5.609375 -5.640625 L 3.484375 -5.640625 L 3.484375 -1.515625 C 3.484375 -1.179688 3.515625 -0.9375 3.578125 -0.78125 C 3.648438 -0.632812 3.78125 -0.53125 3.96875 -0.46875 C 4.164062 -0.40625 4.46875 -0.375 4.875 -0.375 L 6.3125 -0.375 C 6.882812 -0.375 7.359375 -0.578125 7.734375 -0.984375 C 8.117188 -1.390625 8.378906 -1.953125 8.515625 -2.671875 Z M 8.515625 -2.671875 "/></g></g></g><g fill="#000000" fill-opacity="1"><g transform="translate(45.375521, 222.213959)"><g><path d="M 5.4375 0.078125 C 5.082031 0.078125 4.679688 0.0546875 4.234375 0.015625 C 4.066406 0.00390625 3.851562 -0.00390625 3.59375 -0.015625 C 3.332031 -0.0234375 3.046875 -0.03125 2.734375 -0.03125 L 1.515625 -0.015625 C 1.304688 -0.00390625 1.007812 0 0.625 0 C 0.601562 0 0.59375 -0.0351562 0.59375 -0.109375 C 0.59375 -0.179688 0.601562 -0.21875 0.625 -0.21875 C 1.082031 -0.21875 1.414062 -0.242188 1.625 -0.296875 C 1.832031 -0.359375 1.972656 -0.472656 2.046875 -0.640625 C 2.128906 -0.816406 2.171875 -1.085938 2.171875 -1.453125 L 2.171875 -9.75 C 2.171875 -10.101562 2.132812 -10.363281 2.0625 -10.53125 C 1.988281 -10.695312 1.847656 -10.8125 1.640625 -10.875 C 1.429688 -10.945312 1.097656 -10.984375 0.640625 -10.984375 C 0.617188 -10.984375 0.609375 -11.019531 0.609375 -11.09375 C 0.609375 -11.164062 0.617188 -11.203125 0.640625 -11.203125 L 1.546875 -11.1875 C 2.046875 -11.15625 2.441406 -11.140625 2.734375 -11.140625 C 3.191406 -11.140625 3.644531 -11.160156 4.09375 -11.203125 C 4.613281 -11.222656 4.972656 -11.234375 5.171875 -11.234375 C 6.421875 -11.234375 7.519531 -10.992188 8.46875 -10.515625 C 9.425781 -10.035156 10.171875 -9.382812 10.703125 -8.5625 C 11.234375 -7.738281 11.5 -6.8125 11.5 -5.78125 C 11.5 -4.625 11.226562 -3.597656 10.6875 -2.703125 C 10.144531 -1.816406 9.40625 -1.128906 8.46875 -0.640625 C 7.539062 -0.160156 6.53125 0.078125 5.4375 0.078125 Z M 5.25 -0.203125 C 6.207031 -0.203125 7.054688 -0.398438 7.796875 -0.796875 C 8.535156 -1.191406 9.109375 -1.78125 9.515625 -2.5625 C 9.929688 -3.351562 10.140625 -4.296875 10.140625 -5.390625 C 10.140625 -6.429688 9.941406 -7.375 9.546875 -8.21875 C 9.160156 -9.070312 8.601562 -9.742188 7.875 -10.234375 C 7.144531 -10.722656 6.300781 -10.96875 5.34375 -10.96875 C 4.820312 -10.96875 4.421875 -10.9375 4.140625 -10.875 C 3.867188 -10.8125 3.664062 -10.691406 3.53125 -10.515625 C 3.394531 -10.335938 3.328125 -10.070312 3.328125 -9.71875 L 3.328125 -1.65625 C 3.328125 -1.289062 3.378906 -1.003906 3.484375 -0.796875 C 3.585938 -0.597656 3.78125 -0.445312 4.0625 -0.34375 C 4.34375 -0.25 4.738281 -0.203125 5.25 -0.203125 Z M 5.25 -0.203125 "/></g></g></g><g fill="#000000" fill-opacity="1"><g transform="translate(60.916712, 222.213959)"><g><path d="M 5.4375 0.078125 C 5.082031 0.078125 4.679688 0.0546875 4.234375 0.015625 C 4.066406 0.00390625 3.851562 -0.00390625 3.59375 -0.015625 C 3.332031 -0.0234375 3.046875 -0.03125 2.734375 -0.03125 L 1.515625 -0.015625 C 1.304688 -0.00390625 1.007812 0 0.625 0 C 0.601562 0 0.59375 -0.0351562 0.59375 -0.109375 C 0.59375 -0.179688 0.601562 -0.21875 0.625 -0.21875 C 1.082031 -0.21875 1.414062 -0.242188 1.625 -0.296875 C 1.832031 -0.359375 1.972656 -0.472656 2.046875 -0.640625 C 2.128906 -0.816406 2.171875 -1.085938 2.171875 -1.453125 L 2.171875 -9.75 C 2.171875 -10.101562 2.132812 -10.363281 2.0625 -10.53125 C 1.988281 -10.695312 1.847656 -10.8125 1.640625 -10.875 C 1.429688 -10.945312 1.097656 -10.984375 0.640625 -10.984375 C 0.617188 -10.984375 0.609375 -11.019531 0.609375 -11.09375 C 0.609375 -11.164062 0.617188 -11.203125 0.640625 -11.203125 L 1.546875 -11.1875 C 2.046875 -11.15625 2.441406 -11.140625 2.734375 -11.140625 C 3.191406 -11.140625 3.644531 -11.160156 4.09375 -11.203125 C 4.613281 -11.222656 4.972656 -11.234375 5.171875 -11.234375 C 6.421875 -11.234375 7.519531 -10.992188 8.46875 -10.515625 C 9.425781 -10.035156 10.171875 -9.382812 10.703125 -8.5625 C 11.234375 -7.738281 11.5 -6.8125 11.5 -5.78125 C 11.5 -4.625 11.226562 -3.597656 10.6875 -2.703125 C 10.144531 -1.816406 9.40625 -1.128906 8.46875 -0.640625 C 7.539062 -0.160156 6.53125 0.078125 5.4375 0.078125 Z M 5.25 -0.203125 C 6.207031 -0.203125 7.054688 -0.398438 7.796875 -0.796875 C 8.535156 -1.191406 9.109375 -1.78125 9.515625 -2.5625 C 9.929688 -3.351562 10.140625 -4.296875 10.140625 -5.390625 C 10.140625 -6.429688 9.941406 -7.375 9.546875 -8.21875 C 9.160156 -9.070312 8.601562 -9.742188 7.875 -10.234375 C 7.144531 -10.722656 6.300781 -10.96875 5.34375 -10.96875 C 4.820312 -10.96875 4.421875 -10.9375 4.140625 -10.875 C 3.867188 -10.8125 3.664062 -10.691406 3.53125 -10.515625 C 3.394531 -10.335938 3.328125 -10.070312 3.328125 -9.71875 L 3.328125 -1.65625 C 3.328125 -1.289062 3.378906 -1.003906 3.484375 -0.796875 C 3.585938 -0.597656 3.78125 -0.445312 4.0625 -0.34375 C 4.34375 -0.25 4.738281 -0.203125 5.25 -0.203125 Z M 5.25 -0.203125 "/></g></g></g><g fill="#000000" fill-opacity="1"><g transform="translate(76.457908, 222.213959)"><g><path d="M 3.5625 -1.453125 C 3.5625 -1.085938 3.597656 -0.816406 3.671875 -0.640625 C 3.742188 -0.472656 3.882812 -0.359375 4.09375 -0.296875 C 4.300781 -0.242188 4.632812 -0.21875 5.09375 -0.21875 C 5.125 -0.21875 5.140625 -0.179688 5.140625 -0.109375 C 5.140625 -0.0351562 5.125 0 5.09375 0 C 4.726562 0 4.441406 -0.00390625 4.234375 -0.015625 L 2.953125 -0.03125 L 1.71875 -0.015625 C 1.5 -0.00390625 1.207031 0 0.84375 0 C 0.800781 0 0.78125 -0.0351562 0.78125 -0.109375 C 0.78125 -0.179688 0.800781 -0.21875 0.84375 -0.21875 C 1.289062 -0.21875 1.617188 -0.242188 1.828125 -0.296875 C 2.046875 -0.359375 2.191406 -0.472656 2.265625 -0.640625 C 2.347656 -0.816406 2.390625 -1.085938 2.390625 -1.453125 L 2.390625 -9.75 C 2.390625 -10.101562 2.347656 -10.363281 2.265625 -10.53125 C 2.191406 -10.695312 2.046875 -10.8125 1.828125 -10.875 C 1.617188 -10.945312 1.289062 -10.984375 0.84375 -10.984375 C 0.800781 -10.984375 0.78125 -11.019531 0.78125 -11.09375 C 0.78125 -11.164062 0.800781 -11.203125 0.84375 -11.203125 L 1.71875 -11.1875 C 2.21875 -11.15625 2.628906 -11.140625 2.953125 -11.140625 C 3.316406 -11.140625 3.75 -11.15625 4.25 -11.1875 L 5.09375 -11.203125 C 5.125 -11.203125 5.140625 -11.164062 5.140625 -11.09375 C 5.140625 -11.019531 5.125 -10.984375 5.09375 -10.984375 C 4.644531 -10.984375 4.316406 -10.945312 4.109375 -10.875 C 3.898438 -10.800781 3.753906 -10.675781 3.671875 -10.5 C 3.597656 -10.332031 3.5625 -10.070312 3.5625 -9.71875 Z M 3.5625 -1.453125 "/></g></g></g><g fill="#000000" fill-opacity="1"><g transform="translate(85.565305, 222.213959)"><g><path d="M 12.609375 -11.203125 C 12.648438 -11.203125 12.671875 -11.164062 12.671875 -11.09375 C 12.671875 -11.019531 12.648438 -10.984375 12.609375 -10.984375 C 12.109375 -10.984375 11.742188 -10.84375 11.515625 -10.5625 C 11.296875 -10.289062 11.1875 -9.847656 11.1875 -9.234375 L 11.1875 0.21875 C 11.1875 0.238281 11.15625 0.253906 11.09375 0.265625 C 11.03125 0.273438 10.988281 0.269531 10.96875 0.25 L 2.71875 -9.734375 L 2.5625 -9.90625 L 2.5625 -1.953125 C 2.5625 -1.328125 2.671875 -0.878906 2.890625 -0.609375 C 3.109375 -0.347656 3.460938 -0.21875 3.953125 -0.21875 C 3.992188 -0.21875 4.015625 -0.179688 4.015625 -0.109375 C 4.015625 -0.0351562 3.992188 0 3.953125 0 C 3.660156 0 3.4375 -0.00390625 3.28125 -0.015625 L 2.390625 -0.03125 L 1.46875 -0.015625 C 1.300781 -0.00390625 1.054688 0 0.734375 0 C 0.710938 0 0.703125 -0.0351562 0.703125 -0.109375 C 0.703125 -0.179688 0.710938 -0.21875 0.734375 -0.21875 C 1.242188 -0.21875 1.609375 -0.347656 1.828125 -0.609375 C 2.046875 -0.878906 2.15625 -1.328125 2.15625 -1.953125 L 2.15625 -10.34375 C 1.6875 -10.769531 1.210938 -10.984375 0.734375 -10.984375 C 0.703125 -10.984375 0.6875 -11.019531 0.6875 -11.09375 C 0.6875 -11.164062 0.703125 -11.203125 0.734375 -11.203125 L 1.390625 -11.1875 C 1.535156 -11.175781 1.734375 -11.171875 1.984375 -11.171875 C 2.253906 -11.171875 2.472656 -11.175781 2.640625 -11.1875 C 2.804688 -11.195312 2.9375 -11.203125 3.03125 -11.203125 C 3.125 -11.203125 3.191406 -11.179688 3.234375 -11.140625 C 3.273438 -11.097656 3.34375 -11.003906 3.4375 -10.859375 C 3.582031 -10.640625 3.726562 -10.441406 3.875 -10.265625 L 10.765625 -1.796875 L 10.765625 -9.234375 C 10.765625 -9.847656 10.660156 -10.289062 10.453125 -10.5625 C 10.242188 -10.84375 9.894531 -10.984375 9.40625 -10.984375 C 9.382812 -10.984375 9.375 -11.019531 9.375 -11.09375 C 9.375 -11.164062 9.382812 -11.203125 9.40625 -11.203125 L 10.109375 -11.1875 C 10.460938 -11.15625 10.753906 -11.140625 10.984375 -11.140625 C 11.203125 -11.140625 11.5 -11.15625 11.875 -11.1875 Z M 12.609375 -11.203125 "/></g></g></g><g fill="#000000" fill-opacity="1"><g transform="translate(101.751657, 222.213959)"><g><path d="M 7.265625 0.21875 C 5.960938 0.21875 4.828125 -0.03125 3.859375 -0.53125 C 2.890625 -1.039062 2.148438 -1.722656 1.640625 -2.578125 C 1.128906 -3.441406 0.875 -4.40625 0.875 -5.46875 C 0.875 -6.625 1.171875 -7.648438 1.765625 -8.546875 C 2.359375 -9.441406 3.171875 -10.140625 4.203125 -10.640625 C 5.234375 -11.140625 6.398438 -11.390625 7.703125 -11.390625 C 8.285156 -11.390625 8.84375 -11.332031 9.375 -11.21875 C 9.90625 -11.113281 10.34375 -10.957031 10.6875 -10.75 C 10.78125 -10.6875 10.832031 -10.632812 10.84375 -10.59375 C 10.863281 -10.550781 10.878906 -10.46875 10.890625 -10.34375 L 11.109375 -8.328125 C 11.109375 -8.296875 11.078125 -8.273438 11.015625 -8.265625 C 10.953125 -8.265625 10.910156 -8.28125 10.890625 -8.3125 C 10.628906 -9.175781 10.15625 -9.835938 9.46875 -10.296875 C 8.78125 -10.765625 7.9375 -11 6.9375 -11 C 5.425781 -11 4.257812 -10.5625 3.4375 -9.6875 C 2.613281 -8.820312 2.203125 -7.628906 2.203125 -6.109375 C 2.203125 -4.953125 2.4375 -3.914062 2.90625 -3 C 3.382812 -2.082031 4.039062 -1.367188 4.875 -0.859375 C 5.707031 -0.347656 6.644531 -0.09375 7.6875 -0.09375 C 8.300781 -0.09375 8.773438 -0.144531 9.109375 -0.25 C 9.441406 -0.351562 9.6875 -0.5625 9.84375 -0.875 C 10 -1.1875 10.078125 -1.648438 10.078125 -2.265625 C 10.078125 -2.878906 10.035156 -3.304688 9.953125 -3.546875 C 9.878906 -3.796875 9.707031 -3.960938 9.4375 -4.046875 C 9.164062 -4.128906 8.703125 -4.171875 8.046875 -4.171875 C 7.972656 -4.171875 7.9375 -4.21875 7.9375 -4.3125 C 7.9375 -4.351562 7.945312 -4.390625 7.96875 -4.421875 C 7.988281 -4.453125 8.007812 -4.46875 8.03125 -4.46875 C 8.957031 -4.40625 9.707031 -4.375 10.28125 -4.375 C 10.84375 -4.375 11.429688 -4.390625 12.046875 -4.421875 C 12.066406 -4.421875 12.085938 -4.40625 12.109375 -4.375 C 12.128906 -4.351562 12.140625 -4.328125 12.140625 -4.296875 C 12.140625 -4.210938 12.109375 -4.171875 12.046875 -4.171875 C 11.753906 -4.179688 11.546875 -4.140625 11.421875 -4.046875 C 11.304688 -3.960938 11.226562 -3.78125 11.1875 -3.5 C 11.15625 -3.226562 11.140625 -2.753906 11.140625 -2.078125 C 11.140625 -1.535156 11.160156 -1.148438 11.203125 -0.921875 C 11.242188 -0.703125 11.265625 -0.5625 11.265625 -0.5 C 11.265625 -0.425781 11.253906 -0.378906 11.234375 -0.359375 C 11.210938 -0.335938 11.160156 -0.3125 11.078125 -0.28125 C 9.628906 0.0507812 8.359375 0.21875 7.265625 0.21875 Z M 7.265625 0.21875 "/></g></g></g><g fill="#000000" fill-opacity="1"><g transform="translate(117.70504, 222.213959)"><g/></g></g><g fill="#000000" fill-opacity="1"><g transform="translate(125.056145, 222.213959)"><g><path d="M 3.4375 -1.515625 C 3.4375 -1.140625 3.488281 -0.863281 3.59375 -0.6875 C 3.695312 -0.519531 3.894531 -0.398438 4.1875 -0.328125 C 4.476562 -0.253906 4.941406 -0.21875 5.578125 -0.21875 C 5.609375 -0.21875 5.625 -0.179688 5.625 -0.109375 C 5.625 -0.0351562 5.609375 0 5.578125 0 C 5.085938 0 4.703125 -0.00390625 4.421875 -0.015625 L 2.875 -0.03125 L 1.671875 -0.015625 C 1.441406 -0.00390625 1.132812 0 0.75 0 C 0.726562 0 0.71875 -0.0351562 0.71875 -0.109375 C 0.71875 -0.179688 0.726562 -0.21875 0.75 -0.21875 C 1.207031 -0.21875 1.539062 -0.242188 1.75 -0.296875 C 1.957031 -0.359375 2.097656 -0.472656 2.171875 -0.640625 C 2.242188 -0.816406 2.28125 -1.085938 2.28125 -1.453125 L 2.28125 -9.75 C 2.28125 -10.101562 2.242188 -10.363281 2.171875 -10.53125 C 2.097656 -10.695312 1.957031 -10.8125 1.75 -10.875 C 1.539062 -10.945312 1.207031 -10.984375 0.75 -10.984375 C 0.726562 -10.984375 0.71875 -11.019531 0.71875 -11.09375 C 0.71875 -11.164062 0.726562 -11.203125 0.75 -11.203125 L 1.65625 -11.1875 C 2.15625 -11.15625 2.550781 -11.140625 2.84375 -11.140625 C 3.144531 -11.140625 3.484375 -11.160156 3.859375 -11.203125 C 3.992188 -11.203125 4.21875 -11.207031 4.53125 -11.21875 C 4.84375 -11.238281 5.113281 -11.25 5.34375 -11.25 C 6.4375 -11.25 7.316406 -11.003906 7.984375 -10.515625 C 8.648438 -10.023438 8.984375 -9.28125 8.984375 -8.28125 C 8.984375 -7.488281 8.785156 -6.820312 8.390625 -6.28125 C 8.003906 -5.75 7.503906 -5.351562 6.890625 -5.09375 C 6.285156 -4.832031 5.660156 -4.703125 5.015625 -4.703125 C 4.671875 -4.703125 4.382812 -4.726562 4.15625 -4.78125 C 4.125 -4.78125 4.109375 -4.8125 4.109375 -4.875 C 4.109375 -4.90625 4.113281 -4.9375 4.125 -4.96875 C 4.144531 -5.007812 4.164062 -5.023438 4.1875 -5.015625 C 4.382812 -4.972656 4.601562 -4.953125 4.84375 -4.953125 C 5.625 -4.953125 6.285156 -5.207031 6.828125 -5.71875 C 7.378906 -6.226562 7.65625 -6.96875 7.65625 -7.9375 C 7.65625 -8.882812 7.394531 -9.628906 6.875 -10.171875 C 6.363281 -10.710938 5.707031 -10.984375 4.90625 -10.984375 C 4.476562 -10.984375 4.164062 -10.957031 3.96875 -10.90625 C 3.78125 -10.863281 3.644531 -10.753906 3.5625 -10.578125 C 3.476562 -10.410156 3.4375 -10.125 3.4375 -9.71875 Z M 3.4375 -1.515625 "/></g></g></g><g fill="#000000" fill-opacity="1"><g transform="translate(137.944967, 222.213959)"><g><path d="M 3.3125 -1.515625 C 3.3125 -1.171875 3.347656 -0.921875 3.421875 -0.765625 C 3.492188 -0.609375 3.625 -0.503906 3.8125 -0.453125 C 4.007812 -0.398438 4.320312 -0.375 4.75 -0.375 L 6.703125 -0.375 C 7.378906 -0.375 7.921875 -0.582031 8.328125 -1 C 8.734375 -1.414062 9.003906 -1.992188 9.140625 -2.734375 C 9.140625 -2.773438 9.171875 -2.789062 9.234375 -2.78125 C 9.304688 -2.78125 9.34375 -2.757812 9.34375 -2.71875 C 9.226562 -1.726562 9.171875 -0.910156 9.171875 -0.265625 C 9.171875 -0.171875 9.148438 -0.101562 9.109375 -0.0625 C 9.078125 -0.0195312 9.007812 0 8.90625 0 L 0.625 0 C 0.601562 0 0.59375 -0.0351562 0.59375 -0.109375 C 0.59375 -0.179688 0.601562 -0.21875 0.625 -0.21875 C 1.082031 -0.21875 1.414062 -0.242188 1.625 -0.296875 C 1.832031 -0.359375 1.972656 -0.472656 2.046875 -0.640625 C 2.117188 -0.816406 2.15625 -1.085938 2.15625 -1.453125 L 2.15625 -9.75 C 2.15625 -10.101562 2.117188 -10.363281 2.046875 -10.53125 C 1.972656 -10.695312 1.832031 -10.8125 1.625 -10.875 C 1.414062 -10.945312 1.082031 -10.984375 0.625 -10.984375 C 0.601562 -10.984375 0.59375 -11.019531 0.59375 -11.09375 C 0.59375 -11.164062 0.601562 -11.203125 0.625 -11.203125 L 1.5 -11.1875 C 2.007812 -11.15625 2.414062 -11.140625 2.71875 -11.140625 C 3.050781 -11.140625 3.472656 -11.15625 3.984375 -11.1875 L 4.84375 -11.203125 C 4.875 -11.203125 4.890625 -11.164062 4.890625 -11.09375 C 4.890625 -11.019531 4.875 -10.984375 4.84375 -10.984375 C 4.394531 -10.984375 4.066406 -10.945312 3.859375 -10.875 C 3.648438 -10.8125 3.503906 -10.691406 3.421875 -10.515625 C 3.347656 -10.347656 3.3125 -10.085938 3.3125 -9.734375 Z M 3.3125 -1.515625 "/></g></g></g><g fill="#000000" fill-opacity="1"><g transform="translate(150.654574, 222.213959)"><g><path d="M 12.53125 -0.21875 C 12.570312 -0.21875 12.59375 -0.179688 12.59375 -0.109375 C 12.59375 -0.0351562 12.570312 0 12.53125 0 C 12.300781 0 11.945312 -0.0078125 11.46875 -0.03125 C 10.988281 -0.0625 10.644531 -0.078125 10.4375 -0.078125 C 10.164062 -0.078125 9.828125 -0.0625 9.421875 -0.03125 C 9.046875 -0.0078125 8.753906 0 8.546875 0 C 8.503906 0 8.484375 -0.0351562 8.484375 -0.109375 C 8.484375 -0.179688 8.503906 -0.21875 8.546875 -0.21875 C 8.992188 -0.21875 9.316406 -0.257812 9.515625 -0.34375 C 9.722656 -0.425781 9.828125 -0.566406 9.828125 -0.765625 C 9.828125 -0.929688 9.75 -1.191406 9.59375 -1.546875 L 7.53125 -5.9375 L 4.140625 -5.9375 L 2.59375 -2.28125 C 2.425781 -1.875 2.34375 -1.535156 2.34375 -1.265625 C 2.34375 -0.566406 2.929688 -0.21875 4.109375 -0.21875 C 4.160156 -0.21875 4.1875 -0.179688 4.1875 -0.109375 C 4.1875 -0.0351562 4.160156 0 4.109375 0 C 3.890625 0 3.578125 -0.0078125 3.171875 -0.03125 C 2.710938 -0.0625 2.316406 -0.078125 1.984375 -0.078125 C 1.671875 -0.078125 1.3125 -0.0625 0.90625 -0.03125 C 0.550781 -0.0078125 0.253906 0 0.015625 0 C -0.046875 0 -0.078125 -0.0351562 -0.078125 -0.109375 C -0.078125 -0.179688 -0.046875 -0.21875 0.015625 -0.21875 C 0.347656 -0.21875 0.628906 -0.28125 0.859375 -0.40625 C 1.097656 -0.53125 1.320312 -0.75 1.53125 -1.0625 C 1.738281 -1.382812 1.96875 -1.84375 2.21875 -2.4375 L 6 -11.359375 C 6.03125 -11.398438 6.070312 -11.421875 6.125 -11.421875 C 6.1875 -11.421875 6.222656 -11.398438 6.234375 -11.359375 L 10.46875 -2.453125 C 10.875 -1.566406 11.21875 -0.972656 11.5 -0.671875 C 11.789062 -0.367188 12.132812 -0.21875 12.53125 -0.21875 Z M 4.296875 -6.3125 L 7.34375 -6.3125 L 5.734375 -9.71875 Z M 4.296875 -6.3125 "/></g></g></g><g fill="#000000" fill-opacity="1"><g transform="translate(166.392904, 222.213959)"><g><path d="M 12.609375 -11.203125 C 12.648438 -11.203125 12.671875 -11.164062 12.671875 -11.09375 C 12.671875 -11.019531 12.648438 -10.984375 12.609375 -10.984375 C 12.109375 -10.984375 11.742188 -10.84375 11.515625 -10.5625 C 11.296875 -10.289062 11.1875 -9.847656 11.1875 -9.234375 L 11.1875 0.21875 C 11.1875 0.238281 11.15625 0.253906 11.09375 0.265625 C 11.03125 0.273438 10.988281 0.269531 10.96875 0.25 L 2.71875 -9.734375 L 2.5625 -9.90625 L 2.5625 -1.953125 C 2.5625 -1.328125 2.671875 -0.878906 2.890625 -0.609375 C 3.109375 -0.347656 3.460938 -0.21875 3.953125 -0.21875 C 3.992188 -0.21875 4.015625 -0.179688 4.015625 -0.109375 C 4.015625 -0.0351562 3.992188 0 3.953125 0 C 3.660156 0 3.4375 -0.00390625 3.28125 -0.015625 L 2.390625 -0.03125 L 1.46875 -0.015625 C 1.300781 -0.00390625 1.054688 0 0.734375 0 C 0.710938 0 0.703125 -0.0351562 0.703125 -0.109375 C 0.703125 -0.179688 0.710938 -0.21875 0.734375 -0.21875 C 1.242188 -0.21875 1.609375 -0.347656 1.828125 -0.609375 C 2.046875 -0.878906 2.15625 -1.328125 2.15625 -1.953125 L 2.15625 -10.34375 C 1.6875 -10.769531 1.210938 -10.984375 0.734375 -10.984375 C 0.703125 -10.984375 0.6875 -11.019531 0.6875 -11.09375 C 0.6875 -11.164062 0.703125 -11.203125 0.734375 -11.203125 L 1.390625 -11.1875 C 1.535156 -11.175781 1.734375 -11.171875 1.984375 -11.171875 C 2.253906 -11.171875 2.472656 -11.175781 2.640625 -11.1875 C 2.804688 -11.195312 2.9375 -11.203125 3.03125 -11.203125 C 3.125 -11.203125 3.191406 -11.179688 3.234375 -11.140625 C 3.273438 -11.097656 3.34375 -11.003906 3.4375 -10.859375 C 3.582031 -10.640625 3.726562 -10.441406 3.875 -10.265625 L 10.765625 -1.796875 L 10.765625 -9.234375 C 10.765625 -9.847656 10.660156 -10.289062 10.453125 -10.5625 C 10.242188 -10.84375 9.894531 -10.984375 9.40625 -10.984375 C 9.382812 -10.984375 9.375 -11.019531 9.375 -11.09375 C 9.375 -11.164062 9.382812 -11.203125 9.40625 -11.203125 L 10.109375 -11.1875 C 10.460938 -11.15625 10.753906 -11.140625 10.984375 -11.140625 C 11.203125 -11.140625 11.5 -11.15625 11.875 -11.1875 Z M 12.609375 -11.203125 "/></g></g></g><g fill="#000000" fill-opacity="1"><g transform="translate(182.579247, 222.213959)"><g><path d="M 12.609375 -11.203125 C 12.648438 -11.203125 12.671875 -11.164062 12.671875 -11.09375 C 12.671875 -11.019531 12.648438 -10.984375 12.609375 -10.984375 C 12.109375 -10.984375 11.742188 -10.84375 11.515625 -10.5625 C 11.296875 -10.289062 11.1875 -9.847656 11.1875 -9.234375 L 11.1875 0.21875 C 11.1875 0.238281 11.15625 0.253906 11.09375 0.265625 C 11.03125 0.273438 10.988281 0.269531 10.96875 0.25 L 2.71875 -9.734375 L 2.5625 -9.90625 L 2.5625 -1.953125 C 2.5625 -1.328125 2.671875 -0.878906 2.890625 -0.609375 C 3.109375 -0.347656 3.460938 -0.21875 3.953125 -0.21875 C 3.992188 -0.21875 4.015625 -0.179688 4.015625 -0.109375 C 4.015625 -0.0351562 3.992188 0 3.953125 0 C 3.660156 0 3.4375 -0.00390625 3.28125 -0.015625 L 2.390625 -0.03125 L 1.46875 -0.015625 C 1.300781 -0.00390625 1.054688 0 0.734375 0 C 0.710938 0 0.703125 -0.0351562 0.703125 -0.109375 C 0.703125 -0.179688 0.710938 -0.21875 0.734375 -0.21875 C 1.242188 -0.21875 1.609375 -0.347656 1.828125 -0.609375 C 2.046875 -0.878906 2.15625 -1.328125 2.15625 -1.953125 L 2.15625 -10.34375 C 1.6875 -10.769531 1.210938 -10.984375 0.734375 -10.984375 C 0.703125 -10.984375 0.6875 -11.019531 0.6875 -11.09375 C 0.6875 -11.164062 0.703125 -11.203125 0.734375 -11.203125 L 1.390625 -11.1875 C 1.535156 -11.175781 1.734375 -11.171875 1.984375 -11.171875 C 2.253906 -11.171875 2.472656 -11.175781 2.640625 -11.1875 C 2.804688 -11.195312 2.9375 -11.203125 3.03125 -11.203125 C 3.125 -11.203125 3.191406 -11.179688 3.234375 -11.140625 C 3.273438 -11.097656 3.34375 -11.003906 3.4375 -10.859375 C 3.582031 -10.640625 3.726562 -10.441406 3.875 -10.265625 L 10.765625 -1.796875 L 10.765625 -9.234375 C 10.765625 -9.847656 10.660156 -10.289062 10.453125 -10.5625 C 10.242188 -10.84375 9.894531 -10.984375 9.40625 -10.984375 C 9.382812 -10.984375 9.375 -11.019531 9.375 -11.09375 C 9.375 -11.164062 9.382812 -11.203125 9.40625 -11.203125 L 10.109375 -11.1875 C 10.460938 -11.15625 10.753906 -11.140625 10.984375 -11.140625 C 11.203125 -11.140625 11.5 -11.15625 11.875 -11.1875 Z M 12.609375 -11.203125 "/></g></g></g><g fill="#000000" fill-opacity="1"><g transform="translate(198.765591, 222.213959)"><g><path d="M 3.5625 -1.453125 C 3.5625 -1.085938 3.597656 -0.816406 3.671875 -0.640625 C 3.742188 -0.472656 3.882812 -0.359375 4.09375 -0.296875 C 4.300781 -0.242188 4.632812 -0.21875 5.09375 -0.21875 C 5.125 -0.21875 5.140625 -0.179688 5.140625 -0.109375 C 5.140625 -0.0351562 5.125 0 5.09375 0 C 4.726562 0 4.441406 -0.00390625 4.234375 -0.015625 L 2.953125 -0.03125 L 1.71875 -0.015625 C 1.5 -0.00390625 1.207031 0 0.84375 0 C 0.800781 0 0.78125 -0.0351562 0.78125 -0.109375 C 0.78125 -0.179688 0.800781 -0.21875 0.84375 -0.21875 C 1.289062 -0.21875 1.617188 -0.242188 1.828125 -0.296875 C 2.046875 -0.359375 2.191406 -0.472656 2.265625 -0.640625 C 2.347656 -0.816406 2.390625 -1.085938 2.390625 -1.453125 L 2.390625 -9.75 C 2.390625 -10.101562 2.347656 -10.363281 2.265625 -10.53125 C 2.191406 -10.695312 2.046875 -10.8125 1.828125 -10.875 C 1.617188 -10.945312 1.289062 -10.984375 0.84375 -10.984375 C 0.800781 -10.984375 0.78125 -11.019531 0.78125 -11.09375 C 0.78125 -11.164062 0.800781 -11.203125 0.84375 -11.203125 L 1.71875 -11.1875 C 2.21875 -11.15625 2.628906 -11.140625 2.953125 -11.140625 C 3.316406 -11.140625 3.75 -11.15625 4.25 -11.1875 L 5.09375 -11.203125 C 5.125 -11.203125 5.140625 -11.164062 5.140625 -11.09375 C 5.140625 -11.019531 5.125 -10.984375 5.09375 -10.984375 C 4.644531 -10.984375 4.316406 -10.945312 4.109375 -10.875 C 3.898438 -10.800781 3.753906 -10.675781 3.671875 -10.5 C 3.597656 -10.332031 3.5625 -10.070312 3.5625 -9.71875 Z M 3.5625 -1.453125 "/></g></g></g><g fill="#000000" fill-opacity="1"><g transform="translate(207.872979, 222.213959)"><g><path d="M 12.609375 -11.203125 C 12.648438 -11.203125 12.671875 -11.164062 12.671875 -11.09375 C 12.671875 -11.019531 12.648438 -10.984375 12.609375 -10.984375 C 12.109375 -10.984375 11.742188 -10.84375 11.515625 -10.5625 C 11.296875 -10.289062 11.1875 -9.847656 11.1875 -9.234375 L 11.1875 0.21875 C 11.1875 0.238281 11.15625 0.253906 11.09375 0.265625 C 11.03125 0.273438 10.988281 0.269531 10.96875 0.25 L 2.71875 -9.734375 L 2.5625 -9.90625 L 2.5625 -1.953125 C 2.5625 -1.328125 2.671875 -0.878906 2.890625 -0.609375 C 3.109375 -0.347656 3.460938 -0.21875 3.953125 -0.21875 C 3.992188 -0.21875 4.015625 -0.179688 4.015625 -0.109375 C 4.015625 -0.0351562 3.992188 0 3.953125 0 C 3.660156 0 3.4375 -0.00390625 3.28125 -0.015625 L 2.390625 -0.03125 L 1.46875 -0.015625 C 1.300781 -0.00390625 1.054688 0 0.734375 0 C 0.710938 0 0.703125 -0.0351562 0.703125 -0.109375 C 0.703125 -0.179688 0.710938 -0.21875 0.734375 -0.21875 C 1.242188 -0.21875 1.609375 -0.347656 1.828125 -0.609375 C 2.046875 -0.878906 2.15625 -1.328125 2.15625 -1.953125 L 2.15625 -10.34375 C 1.6875 -10.769531 1.210938 -10.984375 0.734375 -10.984375 C 0.703125 -10.984375 0.6875 -11.019531 0.6875 -11.09375 C 0.6875 -11.164062 0.703125 -11.203125 0.734375 -11.203125 L 1.390625 -11.1875 C 1.535156 -11.175781 1.734375 -11.171875 1.984375 -11.171875 C 2.253906 -11.171875 2.472656 -11.175781 2.640625 -11.1875 C 2.804688 -11.195312 2.9375 -11.203125 3.03125 -11.203125 C 3.125 -11.203125 3.191406 -11.179688 3.234375 -11.140625 C 3.273438 -11.097656 3.34375 -11.003906 3.4375 -10.859375 C 3.582031 -10.640625 3.726562 -10.441406 3.875 -10.265625 L 10.765625 -1.796875 L 10.765625 -9.234375 C 10.765625 -9.847656 10.660156 -10.289062 10.453125 -10.5625 C 10.242188 -10.84375 9.894531 -10.984375 9.40625 -10.984375 C 9.382812 -10.984375 9.375 -11.019531 9.375 -11.09375 C 9.375 -11.164062 9.382812 -11.203125 9.40625 -11.203125 L 10.109375 -11.1875 C 10.460938 -11.15625 10.753906 -11.140625 10.984375 -11.140625 C 11.203125 -11.140625 11.5 -11.15625 11.875 -11.1875 Z M 12.609375 -11.203125 "/></g></g></g><g fill="#000000" fill-opacity="1"><g transform="translate(224.059323, 222.213959)"><g><path d="M 7.265625 0.21875 C 5.960938 0.21875 4.828125 -0.03125 3.859375 -0.53125 C 2.890625 -1.039062 2.148438 -1.722656 1.640625 -2.578125 C 1.128906 -3.441406 0.875 -4.40625 0.875 -5.46875 C 0.875 -6.625 1.171875 -7.648438 1.765625 -8.546875 C 2.359375 -9.441406 3.171875 -10.140625 4.203125 -10.640625 C 5.234375 -11.140625 6.398438 -11.390625 7.703125 -11.390625 C 8.285156 -11.390625 8.84375 -11.332031 9.375 -11.21875 C 9.90625 -11.113281 10.34375 -10.957031 10.6875 -10.75 C 10.78125 -10.6875 10.832031 -10.632812 10.84375 -10.59375 C 10.863281 -10.550781 10.878906 -10.46875 10.890625 -10.34375 L 11.109375 -8.328125 C 11.109375 -8.296875 11.078125 -8.273438 11.015625 -8.265625 C 10.953125 -8.265625 10.910156 -8.28125 10.890625 -8.3125 C 10.628906 -9.175781 10.15625 -9.835938 9.46875 -10.296875 C 8.78125 -10.765625 7.9375 -11 6.9375 -11 C 5.425781 -11 4.257812 -10.5625 3.4375 -9.6875 C 2.613281 -8.820312 2.203125 -7.628906 2.203125 -6.109375 C 2.203125 -4.953125 2.4375 -3.914062 2.90625 -3 C 3.382812 -2.082031 4.039062 -1.367188 4.875 -0.859375 C 5.707031 -0.347656 6.644531 -0.09375 7.6875 -0.09375 C 8.300781 -0.09375 8.773438 -0.144531 9.109375 -0.25 C 9.441406 -0.351562 9.6875 -0.5625 9.84375 -0.875 C 10 -1.1875 10.078125 -1.648438 10.078125 -2.265625 C 10.078125 -2.878906 10.035156 -3.304688 9.953125 -3.546875 C 9.878906 -3.796875 9.707031 -3.960938 9.4375 -4.046875 C 9.164062 -4.128906 8.703125 -4.171875 8.046875 -4.171875 C 7.972656 -4.171875 7.9375 -4.21875 7.9375 -4.3125 C 7.9375 -4.351562 7.945312 -4.390625 7.96875 -4.421875 C 7.988281 -4.453125 8.007812 -4.46875 8.03125 -4.46875 C 8.957031 -4.40625 9.707031 -4.375 10.28125 -4.375 C 10.84375 -4.375 11.429688 -4.390625 12.046875 -4.421875 C 12.066406 -4.421875 12.085938 -4.40625 12.109375 -4.375 C 12.128906 -4.351562 12.140625 -4.328125 12.140625 -4.296875 C 12.140625 -4.210938 12.109375 -4.171875 12.046875 -4.171875 C 11.753906 -4.179688 11.546875 -4.140625 11.421875 -4.046875 C 11.304688 -3.960938 11.226562 -3.78125 11.1875 -3.5 C 11.15625 -3.226562 11.140625 -2.753906 11.140625 -2.078125 C 11.140625 -1.535156 11.160156 -1.148438 11.203125 -0.921875 C 11.242188 -0.703125 11.265625 -0.5625 11.265625 -0.5 C 11.265625 -0.425781 11.253906 -0.378906 11.234375 -0.359375 C 11.210938 -0.335938 11.160156 -0.3125 11.078125 -0.28125 C 9.628906 0.0507812 8.359375 0.21875 7.265625 0.21875 Z M 7.265625 0.21875 "/></g></g></g><g fill="#000000" fill-opacity="1"><g transform="translate(240.012696, 222.213959)"><g/></g></g><g fill="#000000" fill-opacity="1"><g transform="translate(247.363793, 222.213959)"><g><path d="M 9.515625 -0.21875 C 9.546875 -0.21875 9.5625 -0.179688 9.5625 -0.109375 C 9.5625 -0.0351562 9.546875 0 9.515625 0 L 7.671875 0 C 7.316406 0 6.785156 -0.242188 6.078125 -0.734375 C 5.296875 -0.0976562 4.363281 0.21875 3.28125 0.21875 C 2.425781 0.21875 1.785156 0.0390625 1.359375 -0.3125 C 0.941406 -0.675781 0.734375 -1.125 0.734375 -1.65625 C 0.734375 -2.125 0.890625 -2.539062 1.203125 -2.90625 C 1.523438 -3.269531 1.988281 -3.671875 2.59375 -4.109375 C 2.300781 -4.503906 2.085938 -4.847656 1.953125 -5.140625 C 1.734375 -5.609375 1.625 -6.039062 1.625 -6.4375 C 1.625 -6.863281 1.738281 -7.238281 1.96875 -7.5625 C 2.195312 -7.894531 2.5 -8.148438 2.875 -8.328125 C 3.25 -8.515625 3.644531 -8.609375 4.0625 -8.609375 C 4.507812 -8.609375 4.90625 -8.5 5.25 -8.28125 C 5.59375 -8.070312 5.765625 -7.707031 5.765625 -7.1875 C 5.765625 -6.800781 5.664062 -6.457031 5.46875 -6.15625 C 5.269531 -5.851562 5.039062 -5.601562 4.78125 -5.40625 C 4.53125 -5.21875 4.140625 -4.945312 3.609375 -4.59375 C 4.179688 -3.78125 4.914062 -2.988281 5.8125 -2.21875 C 6.0625 -2.007812 6.300781 -1.828125 6.53125 -1.671875 C 6.90625 -2.242188 7.09375 -2.835938 7.09375 -3.453125 C 7.09375 -4.191406 6.734375 -4.5625 6.015625 -4.5625 C 5.984375 -4.5625 5.960938 -4.597656 5.953125 -4.671875 C 5.953125 -4.742188 5.972656 -4.78125 6.015625 -4.78125 L 9.109375 -4.796875 C 9.148438 -4.796875 9.171875 -4.757812 9.171875 -4.6875 C 9.171875 -4.625 9.148438 -4.59375 9.109375 -4.59375 C 8.796875 -4.59375 8.5625 -4.554688 8.40625 -4.484375 C 8.257812 -4.410156 8.160156 -4.316406 8.109375 -4.203125 C 8.054688 -4.085938 7.984375 -3.890625 7.890625 -3.609375 C 7.609375 -2.742188 7.242188 -2.03125 6.796875 -1.46875 C 7.335938 -1.070312 7.859375 -0.765625 8.359375 -0.546875 C 8.859375 -0.335938 9.242188 -0.226562 9.515625 -0.21875 Z M 2.59375 -7.0625 C 2.59375 -6.40625 2.894531 -5.640625 3.5 -4.765625 C 3.914062 -5.085938 4.238281 -5.414062 4.46875 -5.75 C 4.707031 -6.09375 4.828125 -6.476562 4.828125 -6.90625 C 4.828125 -7.320312 4.710938 -7.648438 4.484375 -7.890625 C 4.253906 -8.140625 3.953125 -8.265625 3.578125 -8.265625 C 3.273438 -8.265625 3.035156 -8.160156 2.859375 -7.953125 C 2.679688 -7.753906 2.59375 -7.457031 2.59375 -7.0625 Z M 3.953125 -0.265625 C 4.648438 -0.265625 5.273438 -0.476562 5.828125 -0.90625 C 5.523438 -1.132812 5.203125 -1.40625 4.859375 -1.71875 C 4.054688 -2.414062 3.34375 -3.15625 2.71875 -3.9375 C 2.425781 -3.675781 2.195312 -3.40625 2.03125 -3.125 C 1.875 -2.84375 1.796875 -2.53125 1.796875 -2.1875 C 1.796875 -1.613281 2 -1.148438 2.40625 -0.796875 C 2.8125 -0.441406 3.328125 -0.265625 3.953125 -0.265625 Z M 3.953125 -0.265625 "/></g></g></g><g fill="#000000" fill-opacity="1"><g transform="translate(260.091307, 222.213959)"><g/></g></g><g fill="#000000" fill-opacity="1"><g transform="translate(267.442404, 222.213959)"><g><path d="M 12.234375 -0.21875 C 12.265625 -0.21875 12.28125 -0.179688 12.28125 -0.109375 C 12.28125 -0.0351562 12.265625 0 12.234375 0 L 9.921875 0 C 9.628906 0 9.070312 -0.507812 8.25 -1.53125 C 7.4375 -2.550781 6.441406 -3.976562 5.265625 -5.8125 C 4.984375 -5.726562 4.660156 -5.6875 4.296875 -5.6875 C 4.066406 -5.6875 3.800781 -5.695312 3.5 -5.71875 L 3.5 -1.453125 C 3.5 -1.078125 3.53125 -0.804688 3.59375 -0.640625 C 3.664062 -0.472656 3.804688 -0.359375 4.015625 -0.296875 C 4.234375 -0.242188 4.566406 -0.21875 5.015625 -0.21875 C 5.054688 -0.21875 5.078125 -0.179688 5.078125 -0.109375 C 5.078125 -0.0351562 5.054688 0 5.015625 0 C 4.648438 0 4.359375 -0.00390625 4.140625 -0.015625 L 2.90625 -0.03125 L 1.6875 -0.015625 C 1.46875 -0.00390625 1.160156 0 0.765625 0 C 0.742188 0 0.734375 -0.0351562 0.734375 -0.109375 C 0.734375 -0.179688 0.742188 -0.21875 0.765625 -0.21875 C 1.222656 -0.21875 1.554688 -0.25 1.765625 -0.3125 C 1.984375 -0.375 2.132812 -0.488281 2.21875 -0.65625 C 2.300781 -0.820312 2.34375 -1.085938 2.34375 -1.453125 L 2.34375 -9.75 C 2.34375 -10.101562 2.300781 -10.363281 2.21875 -10.53125 C 2.144531 -10.695312 2.003906 -10.8125 1.796875 -10.875 C 1.585938 -10.945312 1.257812 -10.984375 0.8125 -10.984375 C 0.769531 -10.984375 0.75 -11.019531 0.75 -11.09375 C 0.75 -11.164062 0.769531 -11.203125 0.8125 -11.203125 L 1.6875 -11.1875 C 2.1875 -11.15625 2.59375 -11.140625 2.90625 -11.140625 C 3.113281 -11.140625 3.3125 -11.144531 3.5 -11.15625 C 3.695312 -11.175781 3.867188 -11.191406 4.015625 -11.203125 C 4.398438 -11.234375 4.742188 -11.25 5.046875 -11.25 C 6.015625 -11.25 6.757812 -11.050781 7.28125 -10.65625 C 7.8125 -10.269531 8.078125 -9.722656 8.078125 -9.015625 C 8.078125 -8.441406 7.910156 -7.898438 7.578125 -7.390625 C 7.242188 -6.878906 6.800781 -6.476562 6.25 -6.1875 C 7.269531 -4.664062 8.125 -3.476562 8.8125 -2.625 C 9.507812 -1.769531 10.125 -1.15625 10.65625 -0.78125 C 11.195312 -0.40625 11.722656 -0.21875 12.234375 -0.21875 Z M 3.5 -6.171875 C 3.789062 -6.117188 4.140625 -6.09375 4.546875 -6.09375 C 5.367188 -6.09375 5.957031 -6.269531 6.3125 -6.625 C 6.675781 -6.976562 6.859375 -7.566406 6.859375 -8.390625 C 6.859375 -10.117188 6.128906 -10.984375 4.671875 -10.984375 C 4.347656 -10.984375 4.101562 -10.957031 3.9375 -10.90625 C 3.78125 -10.851562 3.664062 -10.738281 3.59375 -10.5625 C 3.53125 -10.394531 3.5 -10.113281 3.5 -9.71875 Z M 3.5 -6.171875 "/></g></g></g><g fill="#000000" fill-opacity="1"><g transform="translate(282.660994, 222.213959)"><g><path d="M 8.515625 -2.671875 C 8.515625 -2.691406 8.535156 -2.703125 8.578125 -2.703125 C 8.617188 -2.703125 8.65625 -2.695312 8.6875 -2.6875 C 8.71875 -2.675781 8.734375 -2.660156 8.734375 -2.640625 C 8.617188 -1.878906 8.5625 -1.085938 8.5625 -0.265625 C 8.5625 -0.171875 8.539062 -0.101562 8.5 -0.0625 C 8.457031 -0.0195312 8.382812 0 8.28125 0 L 0.765625 0 C 0.742188 0 0.734375 -0.0351562 0.734375 -0.109375 C 0.734375 -0.179688 0.742188 -0.21875 0.765625 -0.21875 C 1.222656 -0.21875 1.554688 -0.242188 1.765625 -0.296875 C 1.972656 -0.359375 2.113281 -0.472656 2.1875 -0.640625 C 2.269531 -0.816406 2.3125 -1.085938 2.3125 -1.453125 L 2.3125 -9.75 C 2.3125 -10.101562 2.269531 -10.363281 2.1875 -10.53125 C 2.113281 -10.695312 1.972656 -10.8125 1.765625 -10.875 C 1.554688 -10.945312 1.222656 -10.984375 0.765625 -10.984375 C 0.742188 -10.984375 0.734375 -11.019531 0.734375 -11.09375 C 0.734375 -11.164062 0.742188 -11.203125 0.765625 -11.203125 L 7.96875 -11.203125 C 8.082031 -11.203125 8.140625 -11.148438 8.140625 -11.046875 L 8.171875 -8.828125 C 8.171875 -8.796875 8.140625 -8.773438 8.078125 -8.765625 C 8.023438 -8.765625 7.988281 -8.78125 7.96875 -8.8125 C 7.9375 -9.445312 7.742188 -9.941406 7.390625 -10.296875 C 7.046875 -10.648438 6.585938 -10.828125 6.015625 -10.828125 L 4.921875 -10.828125 C 4.503906 -10.828125 4.195312 -10.789062 4 -10.71875 C 3.800781 -10.65625 3.664062 -10.539062 3.59375 -10.375 C 3.519531 -10.21875 3.484375 -9.976562 3.484375 -9.65625 L 3.484375 -6.015625 L 5.65625 -6.015625 C 6.238281 -6.015625 6.648438 -6.109375 6.890625 -6.296875 C 7.140625 -6.492188 7.265625 -6.820312 7.265625 -7.28125 C 7.265625 -7.300781 7.296875 -7.3125 7.359375 -7.3125 C 7.429688 -7.3125 7.46875 -7.300781 7.46875 -7.28125 L 7.453125 -5.828125 C 7.453125 -5.484375 7.457031 -5.21875 7.46875 -5.03125 L 7.484375 -4.171875 C 7.484375 -4.148438 7.445312 -4.140625 7.375 -4.140625 C 7.3125 -4.140625 7.28125 -4.148438 7.28125 -4.171875 C 7.28125 -4.703125 7.148438 -5.078125 6.890625 -5.296875 C 6.628906 -5.523438 6.203125 -5.640625 5.609375 -5.640625 L 3.484375 -5.640625 L 3.484375 -1.515625 C 3.484375 -1.179688 3.515625 -0.9375 3.578125 -0.78125 C 3.648438 -0.632812 3.78125 -0.53125 3.96875 -0.46875 C 4.164062 -0.40625 4.46875 -0.375 4.875 -0.375 L 6.3125 -0.375 C 6.882812 -0.375 7.359375 -0.578125 7.734375 -0.984375 C 8.117188 -1.390625 8.378906 -1.953125 8.515625 -2.671875 Z M 8.515625 -2.671875 "/></g></g></g><g fill="#000000" fill-opacity="1"><g transform="translate(295.442281, 222.213959)"><g><path d="M 12.609375 -11.203125 C 12.648438 -11.203125 12.671875 -11.164062 12.671875 -11.09375 C 12.671875 -11.019531 12.648438 -10.984375 12.609375 -10.984375 C 12.109375 -10.984375 11.742188 -10.84375 11.515625 -10.5625 C 11.296875 -10.289062 11.1875 -9.847656 11.1875 -9.234375 L 11.1875 0.21875 C 11.1875 0.238281 11.15625 0.253906 11.09375 0.265625 C 11.03125 0.273438 10.988281 0.269531 10.96875 0.25 L 2.71875 -9.734375 L 2.5625 -9.90625 L 2.5625 -1.953125 C 2.5625 -1.328125 2.671875 -0.878906 2.890625 -0.609375 C 3.109375 -0.347656 3.460938 -0.21875 3.953125 -0.21875 C 3.992188 -0.21875 4.015625 -0.179688 4.015625 -0.109375 C 4.015625 -0.0351562 3.992188 0 3.953125 0 C 3.660156 0 3.4375 -0.00390625 3.28125 -0.015625 L 2.390625 -0.03125 L 1.46875 -0.015625 C 1.300781 -0.00390625 1.054688 0 0.734375 0 C 0.710938 0 0.703125 -0.0351562 0.703125 -0.109375 C 0.703125 -0.179688 0.710938 -0.21875 0.734375 -0.21875 C 1.242188 -0.21875 1.609375 -0.347656 1.828125 -0.609375 C 2.046875 -0.878906 2.15625 -1.328125 2.15625 -1.953125 L 2.15625 -10.34375 C 1.6875 -10.769531 1.210938 -10.984375 0.734375 -10.984375 C 0.703125 -10.984375 0.6875 -11.019531 0.6875 -11.09375 C 0.6875 -11.164062 0.703125 -11.203125 0.734375 -11.203125 L 1.390625 -11.1875 C 1.535156 -11.175781 1.734375 -11.171875 1.984375 -11.171875 C 2.253906 -11.171875 2.472656 -11.175781 2.640625 -11.1875 C 2.804688 -11.195312 2.9375 -11.203125 3.03125 -11.203125 C 3.125 -11.203125 3.191406 -11.179688 3.234375 -11.140625 C 3.273438 -11.097656 3.34375 -11.003906 3.4375 -10.859375 C 3.582031 -10.640625 3.726562 -10.441406 3.875 -10.265625 L 10.765625 -1.796875 L 10.765625 -9.234375 C 10.765625 -9.847656 10.660156 -10.289062 10.453125 -10.5625 C 10.242188 -10.84375 9.894531 -10.984375 9.40625 -10.984375 C 9.382812 -10.984375 9.375 -11.019531 9.375 -11.09375 C 9.375 -11.164062 9.382812 -11.203125 9.40625 -11.203125 L 10.109375 -11.1875 C 10.460938 -11.15625 10.753906 -11.140625 10.984375 -11.140625 C 11.203125 -11.140625 11.5 -11.15625 11.875 -11.1875 Z M 12.609375 -11.203125 "/></g></g></g><g fill="#000000" fill-opacity="1"><g transform="translate(311.628625, 222.213959)"><g><path d="M 3.390625 -10.875 C 2.640625 -10.875 2.070312 -10.679688 1.6875 -10.296875 C 1.3125 -9.921875 1.039062 -9.273438 0.875 -8.359375 C 0.875 -8.328125 0.84375 -8.3125 0.78125 -8.3125 C 0.71875 -8.3125 0.6875 -8.328125 0.6875 -8.359375 C 0.726562 -8.785156 0.78125 -9.34375 0.84375 -10.03125 C 0.90625 -10.726562 0.9375 -11.25 0.9375 -11.59375 C 0.9375 -11.65625 0.96875 -11.6875 1.03125 -11.6875 C 1.09375 -11.6875 1.125 -11.65625 1.125 -11.59375 C 1.125 -11.332031 1.445312 -11.203125 2.09375 -11.203125 C 3.113281 -11.160156 4.316406 -11.140625 5.703125 -11.140625 C 6.398438 -11.140625 7.144531 -11.15625 7.9375 -11.1875 L 9.15625 -11.203125 C 9.582031 -11.203125 9.898438 -11.226562 10.109375 -11.28125 C 10.328125 -11.34375 10.460938 -11.46875 10.515625 -11.65625 C 10.523438 -11.695312 10.5625 -11.71875 10.625 -11.71875 C 10.6875 -11.71875 10.71875 -11.695312 10.71875 -11.65625 C 10.675781 -11.300781 10.640625 -10.769531 10.609375 -10.0625 C 10.578125 -9.363281 10.5625 -8.796875 10.5625 -8.359375 C 10.5625 -8.328125 10.523438 -8.3125 10.453125 -8.3125 C 10.378906 -8.3125 10.34375 -8.328125 10.34375 -8.359375 C 10.300781 -9.285156 10.109375 -9.9375 9.765625 -10.3125 C 9.421875 -10.6875 8.847656 -10.875 8.046875 -10.875 C 7.503906 -10.875 7.117188 -10.847656 6.890625 -10.796875 C 6.671875 -10.753906 6.519531 -10.65625 6.4375 -10.5 C 6.351562 -10.34375 6.3125 -10.082031 6.3125 -9.71875 L 6.3125 -1.453125 C 6.3125 -1.078125 6.351562 -0.804688 6.4375 -0.640625 C 6.519531 -0.472656 6.679688 -0.359375 6.921875 -0.296875 C 7.160156 -0.242188 7.535156 -0.21875 8.046875 -0.21875 C 8.078125 -0.21875 8.09375 -0.179688 8.09375 -0.109375 C 8.09375 -0.0351562 8.078125 0 8.046875 0 C 7.648438 0 7.332031 -0.00390625 7.09375 -0.015625 L 5.703125 -0.03125 L 4.359375 -0.015625 C 4.117188 -0.00390625 3.789062 0 3.375 0 C 3.34375 0 3.328125 -0.0351562 3.328125 -0.109375 C 3.328125 -0.179688 3.34375 -0.21875 3.375 -0.21875 C 3.882812 -0.21875 4.257812 -0.242188 4.5 -0.296875 C 4.738281 -0.359375 4.898438 -0.472656 4.984375 -0.640625 C 5.078125 -0.816406 5.125 -1.085938 5.125 -1.453125 L 5.125 -9.75 C 5.125 -10.125 5.082031 -10.382812 5 -10.53125 C 4.914062 -10.675781 4.757812 -10.769531 4.53125 -10.8125 C 4.300781 -10.851562 3.921875 -10.875 3.390625 -10.875 Z M 3.390625 -10.875 "/></g></g></g><g fill="#000000" fill-opacity="1"><g transform="translate(326.148285, 222.213959)"><g><path d="M 12.53125 -0.21875 C 12.570312 -0.21875 12.59375 -0.179688 12.59375 -0.109375 C 12.59375 -0.0351562 12.570312 0 12.53125 0 C 12.300781 0 11.945312 -0.0078125 11.46875 -0.03125 C 10.988281 -0.0625 10.644531 -0.078125 10.4375 -0.078125 C 10.164062 -0.078125 9.828125 -0.0625 9.421875 -0.03125 C 9.046875 -0.0078125 8.753906 0 8.546875 0 C 8.503906 0 8.484375 -0.0351562 8.484375 -0.109375 C 8.484375 -0.179688 8.503906 -0.21875 8.546875 -0.21875 C 8.992188 -0.21875 9.316406 -0.257812 9.515625 -0.34375 C 9.722656 -0.425781 9.828125 -0.566406 9.828125 -0.765625 C 9.828125 -0.929688 9.75 -1.191406 9.59375 -1.546875 L 7.53125 -5.9375 L 4.140625 -5.9375 L 2.59375 -2.28125 C 2.425781 -1.875 2.34375 -1.535156 2.34375 -1.265625 C 2.34375 -0.566406 2.929688 -0.21875 4.109375 -0.21875 C 4.160156 -0.21875 4.1875 -0.179688 4.1875 -0.109375 C 4.1875 -0.0351562 4.160156 0 4.109375 0 C 3.890625 0 3.578125 -0.0078125 3.171875 -0.03125 C 2.710938 -0.0625 2.316406 -0.078125 1.984375 -0.078125 C 1.671875 -0.078125 1.3125 -0.0625 0.90625 -0.03125 C 0.550781 -0.0078125 0.253906 0 0.015625 0 C -0.046875 0 -0.078125 -0.0351562 -0.078125 -0.109375 C -0.078125 -0.179688 -0.046875 -0.21875 0.015625 -0.21875 C 0.347656 -0.21875 0.628906 -0.28125 0.859375 -0.40625 C 1.097656 -0.53125 1.320312 -0.75 1.53125 -1.0625 C 1.738281 -1.382812 1.96875 -1.84375 2.21875 -2.4375 L 6 -11.359375 C 6.03125 -11.398438 6.070312 -11.421875 6.125 -11.421875 C 6.1875 -11.421875 6.222656 -11.398438 6.234375 -11.359375 L 10.46875 -2.453125 C 10.875 -1.566406 11.21875 -0.972656 11.5 -0.671875 C 11.789062 -0.367188 12.132812 -0.21875 12.53125 -0.21875 Z M 4.296875 -6.3125 L 7.34375 -6.3125 L 5.734375 -9.71875 Z M 4.296875 -6.3125 "/></g></g></g><g fill="#000000" fill-opacity="1"><g transform="translate(341.886606, 222.213959)"><g><path d="M 3.3125 -1.515625 C 3.3125 -1.171875 3.347656 -0.921875 3.421875 -0.765625 C 3.492188 -0.609375 3.625 -0.503906 3.8125 -0.453125 C 4.007812 -0.398438 4.320312 -0.375 4.75 -0.375 L 6.703125 -0.375 C 7.378906 -0.375 7.921875 -0.582031 8.328125 -1 C 8.734375 -1.414062 9.003906 -1.992188 9.140625 -2.734375 C 9.140625 -2.773438 9.171875 -2.789062 9.234375 -2.78125 C 9.304688 -2.78125 9.34375 -2.757812 9.34375 -2.71875 C 9.226562 -1.726562 9.171875 -0.910156 9.171875 -0.265625 C 9.171875 -0.171875 9.148438 -0.101562 9.109375 -0.0625 C 9.078125 -0.0195312 9.007812 0 8.90625 0 L 0.625 0 C 0.601562 0 0.59375 -0.0351562 0.59375 -0.109375 C 0.59375 -0.179688 0.601562 -0.21875 0.625 -0.21875 C 1.082031 -0.21875 1.414062 -0.242188 1.625 -0.296875 C 1.832031 -0.359375 1.972656 -0.472656 2.046875 -0.640625 C 2.117188 -0.816406 2.15625 -1.085938 2.15625 -1.453125 L 2.15625 -9.75 C 2.15625 -10.101562 2.117188 -10.363281 2.046875 -10.53125 C 1.972656 -10.695312 1.832031 -10.8125 1.625 -10.875 C 1.414062 -10.945312 1.082031 -10.984375 0.625 -10.984375 C 0.601562 -10.984375 0.59375 -11.019531 0.59375 -11.09375 C 0.59375 -11.164062 0.601562 -11.203125 0.625 -11.203125 L 1.5 -11.1875 C 2.007812 -11.15625 2.414062 -11.140625 2.71875 -11.140625 C 3.050781 -11.140625 3.472656 -11.15625 3.984375 -11.1875 L 4.84375 -11.203125 C 4.875 -11.203125 4.890625 -11.164062 4.890625 -11.09375 C 4.890625 -11.019531 4.875 -10.984375 4.84375 -10.984375 C 4.394531 -10.984375 4.066406 -10.945312 3.859375 -10.875 C 3.648438 -10.8125 3.503906 -10.691406 3.421875 -10.515625 C 3.347656 -10.347656 3.3125 -10.085938 3.3125 -9.734375 Z M 3.3125 -1.515625 "/></g></g></g><g fill="#000000" fill-opacity="1"><g transform="translate(354.596221, 222.213959)"><g><path d="M 2.59375 -9.109375 C 2.59375 -8.640625 2.707031 -8.226562 2.9375 -7.875 C 3.164062 -7.53125 3.441406 -7.242188 3.765625 -7.015625 C 4.085938 -6.785156 4.539062 -6.488281 5.125 -6.125 C 5.75 -5.757812 6.234375 -5.453125 6.578125 -5.203125 C 6.921875 -4.953125 7.210938 -4.628906 7.453125 -4.234375 C 7.703125 -3.847656 7.828125 -3.382812 7.828125 -2.84375 C 7.828125 -2.269531 7.679688 -1.75 7.390625 -1.28125 C 7.109375 -0.820312 6.691406 -0.457031 6.140625 -0.1875 C 5.585938 0.0820312 4.921875 0.21875 4.140625 0.21875 C 3.222656 0.21875 2.378906 0.0078125 1.609375 -0.40625 C 1.546875 -0.445312 1.503906 -0.488281 1.484375 -0.53125 C 1.472656 -0.582031 1.460938 -0.65625 1.453125 -0.75 L 1.21875 -3.1875 C 1.207031 -3.238281 1.234375 -3.269531 1.296875 -3.28125 C 1.359375 -3.289062 1.398438 -3.269531 1.421875 -3.21875 C 1.609375 -2.363281 1.960938 -1.625 2.484375 -1 C 3.003906 -0.382812 3.691406 -0.078125 4.546875 -0.078125 C 5.148438 -0.078125 5.65625 -0.238281 6.0625 -0.5625 C 6.476562 -0.894531 6.6875 -1.414062 6.6875 -2.125 C 6.6875 -2.664062 6.566406 -3.132812 6.328125 -3.53125 C 6.085938 -3.925781 5.796875 -4.25 5.453125 -4.5 C 5.117188 -4.757812 4.65625 -5.0625 4.0625 -5.40625 C 3.488281 -5.757812 3.035156 -6.0625 2.703125 -6.3125 C 2.378906 -6.5625 2.101562 -6.875 1.875 -7.25 C 1.65625 -7.632812 1.546875 -8.085938 1.546875 -8.609375 C 1.546875 -9.203125 1.703125 -9.707031 2.015625 -10.125 C 2.328125 -10.550781 2.738281 -10.867188 3.25 -11.078125 C 3.757812 -11.285156 4.300781 -11.390625 4.875 -11.390625 C 5.582031 -11.390625 6.28125 -11.25 6.96875 -10.96875 C 7.144531 -10.90625 7.234375 -10.800781 7.234375 -10.65625 L 7.359375 -8.609375 C 7.359375 -8.554688 7.328125 -8.53125 7.265625 -8.53125 C 7.210938 -8.53125 7.179688 -8.554688 7.171875 -8.609375 C 7.078125 -9.222656 6.816406 -9.796875 6.390625 -10.328125 C 5.972656 -10.859375 5.375 -11.125 4.59375 -11.125 C 3.914062 -11.125 3.410156 -10.929688 3.078125 -10.546875 C 2.753906 -10.160156 2.59375 -9.679688 2.59375 -9.109375 Z M 2.59375 -9.109375 "/></g></g></g></svg>